<?xml version="1.0" encoding="utf-8"?>
<!-- Generator: Adobe Illustrator 23.0.4, SVG Export Plug-In . SVG Version: 6.00 Build 0)  -->
<svg version="1.1" id="IMG_x5F_9935_xA0_Image" xmlns="http://www.w3.org/2000/svg" xmlns:xlink="http://www.w3.org/1999/xlink"
	 x="0px" y="0px" viewBox="0 0 2448 3264" style="enable-background:new 0 0 2448 3264;" xml:space="preserve">
<style type="text/css">
	.st0{fill:#FFFFFF;}
</style>
<g>
	<path class="st0" d="M1738.84,929.03c3.68-10.16,13.1-12.16,20.98-16.29c6.1-3.2,13.02-4.87,19.06-8.17
		c13.92-7.59,29.34-9.53,44.42-12.81c0.32-0.07,0.67-0.09,1-0.05c21.69,2.23,42,5.91,56.1,26.13c13.79,19.79,25.08,40.63,33.4,63.04
		c10.21,27.5,16.28,55.91,18.2,85.36c0.81,12.35-4.27,23.08-5.41,34.74c-0.45,4.57-1.72,9.09-2.93,13.55
		c-4.73,17.46-18.6,26.13-33.38,33.32c-10.22,4.97-21.34,7.39-33.14,7.07c-11.07-1.81-22.19-3.37-33.2-5.48
		c-12.77-2.44-23.12-9.91-33.12-17.58c-10.83-8.29-19.01-18.76-26.66-30.29c-12.52-18.85-22.69-38.83-32.34-59.08
		c-5.8-12.17-9.61-25.35-13.73-38.26c-2.68-8.39-2.28-16.83,1.24-25.3C1726.2,962.45,1732.76,945.82,1738.84,929.03z
		 M1261.41,848.59c3.12-27.7,11.97-53.38,23.05-78.42c4.64-10.48,11.65-19.97,18.06-29.6c8.08-12.14,16.43-24.12,25.12-35.83
		c3.71-5,7.92-10.14,13.03-13.48c15.3-10.01,31.46-18.25,49.71-22.02c16.47-3.4,32.93-6.68,49-12.16
		c19.19-6.54,36.24-16.1,51.42-29.34c2.41-2.1,5.23-3.71,9.25-6.52c-1.97,11.82-3.74,21.85-5.3,31.91
		c-1.57,10.13-3.3,20.26-4.31,30.45c-1.51,15.21-4.86,29.96-9.25,44.55c-2.58,8.55-4.7,17.24-7.27,25.79
		c-4.14,13.79-10.86,25.87-20.35,37.11c-8.14,9.64-17.96,16.24-27.94,23.19c-7.61,5.3-14.63,11.45-22.23,16.76
		c-5.95,4.16-12.43,7.55-18.61,11.38c-4.78,2.96-9.48,6.05-14.17,9.15c-14.05,9.28-28.41,18.12-42.03,28
		c-17.1,12.4-34.9,24-49.25,39.9c-7.63,8.46-13.38,17.91-17.69,28.59C1257.08,914.63,1257.68,881.72,1261.41,848.59z
		 M547.41,2263.31c3.17-4.89,5.58-8.62,8-12.36C555.69,2261.73,555.69,2261.73,547.41,2263.31z M661.37,2255.28
		c-7.94-3.51-8.42-5.13-4.27-13.23C660.75,2245.78,662.5,2249.89,661.37,2255.28z M1388.77,2737.21c5.16,14.69,5.52,29.53,5.9,44.35
		c0.09,3.65,0.12,7.35-0.42,10.94c-0.57,3.87-0.78,8.46-2.99,11.3c-9.37,12.04-20.69,22.59-37.03,21.58
		c-17.06-1.06-31.81-8.92-41.9-23.09c-5.34-7.49-9.94-15.98-12.7-24.71c-2.83-8.96-3.01-18.76-4.54-29.56
		C1327.26,2747.85,1358.57,2747.89,1388.77,2737.21z M1467.28,1651.27c-6.15-3.41-12.15-7.06-16.54-12.04
		c-18.79-21.27-36.38-43.63-53.83-66.04c-9.12-11.71-17.07-24.35-25.3-36.73c-5.84-8.78-12.71-17.26-16.53-26.9
		c-5.45-13.75-12.54-19.4-27.53-17.74c-1.1,0.12-2.87-1.1-3.52-2.18c-9.97-16.76-18.95-34.18-29.94-50.24
		c-8.42-12.3-18.55-23.7-29.29-34.08c-14.14-13.67-29.63-25.93-44.5-38.84c-1.11-0.97-2.69-2.34-2.68-3.52
		c0.07-8.29,0.1-16.62,0.88-24.87c2.93-31.07,6.13-62.11,9.04-91.23c-1.52-10.08-1.97-18.17-4.25-25.71
		c-0.9-2.98-6.24-6.96-8.93-6.53c-4.98,0.78-9.51,4.47-14.21,6.96c-1.54,0.82-3.91,2.77-4.41,2.37c-1.47-1.2-3.2-3.4-3.06-5.06
		c1.83-21.93-6.09-40.62-17.63-58.69c-9.3-14.56-17.05-30.12-25.31-45.33c-1.99-3.66-4.77-7.08-8.03-3.27
		c-2.54,2.96-3.67,8.3-3.26,12.36c0.78,7.74,4.93,15.44,4.47,22.95c-1.51,24.36-3.8,48.72-7.14,72.9
		c-1.78,12.9-6.32,25.42-9.72,38.08c-0.23,0.86-1.26,1.67-2.11,2.17c-4.64,2.74-9.66,4.95-13.96,8.13c-11.4,8.42-15.16,4.13-21-8.42
		c-5.19-11.16-10.16-22.5-16.32-33.12c-6.94-11.96-14.39-23.61-21.79-35.3c10.13-16.02,20.31-31.99,31.41-47.39
		c3.22-4.46,5.65-9.98,6.76-15.36c2.33-11.28,3.64-22.78,5.18-34.22c0.84-6.24,0.56-12.71,2.04-18.77
		c3.8-15.59,7.96-31.11,12.62-46.46c6.17-20.36,14.3-39.92,24.73-58.57c10-17.89,23.84-30.61,43.7-36.54
		c19.98-5.96,40.29-11.08,58.52-21.78c1.3-0.76,3.14-0.58,4.58-0.82c0.53,0.98,1.09,1.53,1.09,2.08
		c-0.09,27.33,4.78,54.12,8.87,80.99c0.36,2.33,1.57,5.49,3.37,6.48c5.63,3.1,12.1,0.09,14.28-6.17c0.98-2.81,1.42-5.81,2.17-8.7
		c2.66-10.23,4.74-20.66,8.16-30.62c4.12-11.98,10.15-22.95,20.53-31.07c13.05-10.21,25.34-21.44,38.78-31.1
		c15.84-11.39,32.07-22.42,48.99-32.1c28.43-16.26,54.91-35.09,78.72-57.42c18.86-17.69,41.63-23.64,66.21-25.38
		c5.54-0.39,11.26,0.47,16.79,1.39c15.68,2.6,31.27,5.53,47.27,2.28c3.18-0.65,6.68,0.24,10.03,0.42
		c-13.4,7.87-23.41,18.49-33.09,29.45c-5.72,6.47-12.57,12.39-16.6,19.81c-10.87,20.05-20.7,40.67-30.54,61.26
		c-6.5,13.6-13.16,27.06-25.99,35.82c-7.04,4.81-14.67,8.84-22.35,12.6c-11.62,5.68-23.44,10.96-35.34,16.05
		c-2.49,1.07-5.82,1.26-8.47,0.63c-6.41-1.52-12.75-3.49-18.92-5.79c-17.43-6.5-35.41-8.08-53.79-6.67
		c-8.7,0.67-11.38,2.49-14.14,10.73c2.9,0.6,5.71,1.84,8.41,1.62c19.88-1.62,38.93,1.42,57.82,7.83
		c17.08,5.79,33.86,12.31,48.77,22.26c9.73,6.49,19.36,12.9,30.13,17.3c12.39,5.06,25.28,7.77,38.76,4.63
		c8.38-1.95,16.69-4.42,25.19-5.6c30.18-4.2,56.71-18.35,83.53-31.13c16.66-7.94,31.52-19.59,47.55-28.96
		c11.01-6.43,22.63-11.81,33.97-17.66c-3.03,10.47-7.87,19.5-11.31,29.03c-4.61,12.81-12.71,25.13-7.91,39.87
		c-2.3,17.44,6.86,32.01,12.6,47.2c4.74,12.55,11.98,24.2,18.54,36.01c7.58,13.63,14.58,27.77,23.74,40.29
		c11.8,16.15,27.52,28.57,44.91,38.59c13.45,7.75,28.83,9.49,43.66,11.47c27.05,3.61,52.17-3.2,74.12-19.72
		c8.82-6.64,16.39-14.71,18.92-26.1c2.94-13.25,5.97-26.49,8.48-39.83c1.22-6.49,2.4-13.28,1.79-19.76
		c-1.44-15.17-3.47-30.33-6.24-45.31c-1.79-9.71-4.9-19.24-8.11-28.61c-4.93-14.36-9.39-29.02-16-42.61
		c-7.79-16-16.99-31.35-28.14-45.48c-8.5-10.77-17.99-19.2-32.04-21.56c-5.53-0.93-10.85-3.07-16.32-4.4
		c-3.48-0.84-7.09-1.68-10.64-1.69c-19.48-0.06-38.56,3.66-55.54,12.77c-14.35,7.7-29.46,13.08-44.45,18.78
		c-24.99,9.5-48.41,21.89-71.04,35.86c-17.46,10.78-33.78,23.28-53.34,30.65c-16.39,6.18-31.97,14.47-49.77,16.38
		c-3.92,0.42-7.89,1.41-11.58,2.8c-19.87,7.51-38.93,6.24-57.23-4.7c-8.63-5.16-17.23-10.36-26.44-15.9
		c12.41-6.08,23.41-11.4,34.34-16.84c19.13-9.52,33.16-24.23,42.6-43.2c8.4-16.88,16.92-33.77,24.11-51.18
		c6.53-15.83,17.66-28.15,28.58-40.49c14.64-16.54,34.58-25.41,54.79-33.22c6.44-2.49,13.32-3.84,19.98-5.8
		c6.28-1.85,10.84-5.27,14.22-11.4c2.73-4.95,1.31-8.6-1.26-11.7c-2.86-3.44-6.87-4.29-11.61-1.62
		c-14.77,8.31-30.39,12.64-47.71,10.3c-9.5-1.29-19.46-2.36-28.79-0.85c-12.16,1.97-24.03,0.52-35.67-1.02
		c-19.66-2.6-38.8-2.66-57.88,2.97c-2.65,0.78-5.52,0.86-9.63,1.46c2.42-8.41,4.42-15.29,6.37-22.19
		c2.87-10.17,6.27-20.24,8.4-30.57c2.66-12.92,4.29-26.05,6.31-39.1c0.86-5.57,1.64-11.16,2.37-16.76
		c2.44-18.68,4.83-37.37,7.26-56.05c0.56-4.3-0.07-8.14-4.43-10.13c-4.72-2.14-9-1.27-12.81,2.37c-4.57,4.37-9.43,8.43-13.9,12.89
		c-18.76,18.69-41.32,30.48-66.73,37.29c-18.84,5.05-38.41,7.06-56.77,14.18c-16.49,6.39-33.16,13.04-44.5,26.94
		c-12.98,15.92-24.24,33.26-35.97,50.17c-4.88,7.05-9.9,14.21-13.35,21.99c-6.71,15.12-13.79,30.33-18.07,46.22
		c-4.63,17.18-6.81,35.11-8.94,52.84c-1.22,10.16-0.22,20.58-0.22,31.02c-5.5,2.8-10.11,5.33-14.86,7.52
		c-9.61,4.42-19,9.61-29.02,12.74c-17.02,5.31-34.05,9.54-49.81,19c-11.65,6.99-19.92,16.14-26.82,26.8
		c-11.2,17.32-20.07,35.96-26.19,55.71c-5.69,18.35-11.66,36.7-15.76,55.44c-3.32,15.15-3.94,30.89-5.99,46.33
		c-1.3,9.79-4,19.1-11.84,27.35c-1-3.08-1.8-5.18-2.36-7.34c-2.51-9.57-4.71-19.22-7.46-28.71c-6.13-21.2-14-41.69-29.97-57.65
		c-11.74-11.73-23.22-24.22-36.8-33.45c-14.64-9.95-31.52-15.78-48.91-19.74c-1.15-1.97-2.29-3.95-3.41-5.95
		c-8.44-15.14-16.31-30.6-24.59-45.83c-0.93-1.71-2.87-2.9-4.43-4.23c-6.31-5.38-11.71,0.52-17.52,1.43
		c-7.45,1.15-10.83,6.74-7.16,13.06c6.46,11.15,13.36,22.04,20.12,33.02c0.78,1.27,1.58,2.54,2.37,3.81
		c-4.97-0.18-9.94-0.38-14.89-0.77c-20.78-1.63-41.5-4.51-62.3-5.18c-21.29-0.68-42.47-1.49-63.62-4.26
		c-19.44-2.54-38.7-5.86-57.66-10.78c-19.19-4.97-38.11-11.33-57.54-14.98c-23.12-4.34-44.54-12.69-65.67-22.39
		c-5.38-2.47-11.02-4.4-16.59-6.44c-18.98-6.94-38.09-13.52-56.93-20.81c-17.34-6.71-34.44-14.03-51.53-21.36
		c-5.77-2.47-11.56-5.25-16.66-8.85c-13.55-9.54-28.84-16.69-40.36-29.07c-1.04-1.12-2.8-1.72-4.34-2.22
		c-5.82-1.91-10.69,0.75-12.04,6.61c-0.51,2.24-0.61,4.57-0.87,6.87c-0.4,3.52-0.73,7.05-1.16,10.57c-0.6,4.92-1.37,9.81-1.84,14.74
		c-0.31,3.3,0.11,6.69-0.38,9.95c-3.87,25.48-4.88,50.4,5.04,75.32c7.23,18.17,16.69,34.75,29.25,49.2
		c11.94,13.73,25.49,26.21,39.26,38.16c11.96,10.38,23.94,21.11,38.72,27.69c13.3,5.91,26.41,12.38,40.06,17.32
		c13.95,5.05,28.51,8.06,42.44,13.72c35.31,14.35,70.26,29.48,105.09,44.93c11.58,5.13,22.94,10.7,30.97,21.11
		c0.8,1.04,1.77,2.33,2.92,2.67c9.57,2.84,14.6,11.32,21.41,17.43c9.85,8.83,14.79,21.2,19.04,33.28
		c2.56,7.29,1.98,15.71,2.61,23.64c0.53,6.66,3.07,9.58,8.82,9.54c5.88-0.04,9.1-2.97,9.12-9.25c0.09-22.69-7.42-42.95-20.85-60.95
		c-9.41-12.61-22.53-21.35-34.35-31.48c-12.3-10.53-26.27-18.01-40.8-24.45c-27.91-12.36-56.08-24.14-84.21-36.03
		c-12.82-5.42-25.38-12.31-38.78-15.32c-19.79-4.44-37.22-13.88-55.11-22.26c-10.02-4.69-19.09-11.97-27.56-19.28
		c-14.54-12.53-29.06-25.28-42.15-39.27c-12.95-13.84-22.01-30.53-27.92-48.75c-5.48-16.9-7.41-34.02-4.62-51.69
		c1.29-8.18,1.5-16.52,2.43-24.76c0.39-3.44,1.37-6.81,2.15-10.54c1.96,0.74,2.97,0.92,3.73,1.45
		c23.2,16.27,48.17,29.07,74.93,38.41c5.32,1.86,10.64,3.75,15.82,5.94c7.88,3.34,15.48,7.35,23.47,10.37
		c20.76,7.86,41.71,15.19,62.47,23.04c8.03,3.04,15.52,7.63,23.67,10.2c12.61,3.99,25.54,7,38.41,10.16
		c12.58,3.09,25.59,4.81,37.79,8.96c26.23,8.93,53.46,12.74,80.55,17.17c24.1,3.95,48.61,2.86,72.93,4.36
		c11.26,0.69,22.54,1.27,33.77,2.3c15.22,1.4,30.39,3.25,45.6,4.7c1.42,2.34,2.82,4.7,4.18,7.07c4.57,7.97,7.91,16.66,12.62,24.54
		c9.05,15.14,19.09,29.7,27.94,44.95c9.49,16.35,17.73,33.42,27.14,49.83c12.5,21.79,25.86,43.1,38.26,64.94
		c-7.11,10.92-14.21,21.85-21.25,32.82c-5.87,9.16-10.97,18.82-16.92,27.91c-6.36,9.71-12.9,19.36-20.11,28.45
		c-10.08,12.7-21.46,24.41-31.14,37.38c-8.71,11.67-16.83,23.45-29.11,31.99c-12.21,8.49-22.9,19.25-35.42,27.18
		c-24.8,15.69-43.54,36.85-58.82,61.32c-9.26,14.84-17.44,30.36-26.27,45.87c-3.11-1.01-6.43-2.71-9.89-3.07
		c-9.57-1.02-19.21-1.35-28.8-2.19c-14.54-1.27-29.06-2.73-43.59-4.15c-6.94-0.68-13.92-2.37-20.79-2.01
		c-14.72,0.76-28.12-3.83-41.75-8.16c-8.64-2.75-15.55-7.85-20.9-14.75c-7.91-10.21-15.66-20.56-21.59-32.19
		c-3.8-7.45-2.87-13.57,1.22-19.16c15.47,4.63,29.93,9.6,44.72,13.22c15.01,3.68,30.33,6.03,46.59,9.17
		c-0.4,0.26,0.44-0.29,1.27-0.84c3.17-2.11,5.69-4.35,4.9-8.89c-0.79-4.52-3.98-5.91-7.59-6.77c-5.77-1.39-11.6-2.49-17.42-3.64
		c-5.84-1.15-11.76-1.93-17.53-3.35c-24.85-6.12-48.75-15.1-72.26-25.05c-21.1-8.92-36.17-23.5-39.64-47.12
		c-3.28-22.36-3-44.82,0.71-67.16c0.36-2.18,1.52-4.23,2.26-6.24c10.09,5.56,19.89,11.01,29.74,16.37
		c4.63,2.52,9.39,4.82,14.02,7.35c6.94,3.79,13.44,8.85,20.81,11.31c16.92,5.64,34.11,10.62,51.47,14.67
		c7.26,1.7,15.43,5.16,22.82-0.42c0.87-9.72-0.56-11.05-9.14-12.93c-12.57-2.76-25.07-5.94-37.41-9.59
		c-14.92-4.42-29.83-9.08-42.59-18.58c-3.73-2.78-7.27-6.52-11.5-7.82c-19.38-5.95-33.74-19.7-48.98-31.65
		c-17.43-13.67-31.89-30.26-42.62-50.24c-9.11-16.95-12.42-34.94-12.49-53.36c-0.04-11.31,4.12-22.62,6.29-33.96
		c0.59-3.09,0.76-6.27,1.09-9.12c-4.27-1.69-7.53-2.97-11.4-4.5c-9.39,17.88-20.08,35.2-15.2,56.98c1.44,6.45,2.11,13.08,2.93,19.65
		c2.19,17.62,10.15,33,20.57,46.65c12.21,15.99,25.56,31.24,41.85,43.5c1.49,1.12,2.46,2.92,2.79,3.32
		c-2.59,8.09-5.32,14.85-6.8,21.87c-1.06,5.03-0.71,10.43-0.54,15.65c0.56,17.53,0.7,35.11,2.31,52.55
		c0.68,7.33,3.32,15.24,7.39,21.34c11.12,16.71,25.56,30.1,44.62,37.72c1.75,0.7,3.44,1.53,5.19,2.31c-0.82,2.1-1.18,3.77-2.05,5.12
		c-4.72,7.3-3.05,14.43-0.08,21.84c3.09,7.69,5.43,15.62,11.05,22.12c4.75,5.5,8.98,11.46,13.32,17.3
		c9.04,12.17,21.51,18.82,35.52,23.88c20.14,7.28,41.2,8.31,62.07,10.48c21.75,2.25,43.6,3.41,65.4,5.23
		c10.94,0.91,13.35,5.72,9.29,16.11c-3.73,9.56-7.48,19.22-9.95,29.14c-4.79,19.19-11.26,38-13.8,57.74
		c-0.46,3.6-1.58,7.15-2.73,10.61c-1.76,5.3-4.06,10.44-5.71,15.77c-4.1,13.24-7.7,26.63-11.99,39.81
		c-7.89,24.22-17.82,47.81-22.31,73.08c-1.73,9.75-3.48,19.54-6.06,29.08c-3.11,11.48-7.22,22.7-10.68,34.09
		c-1.33,4.38-2.08,8.94-3.08,13.42c-2.06,9.28-4.25,18.53-6.13,27.84c-2.22,11.01-5.03,22.01-5.99,33.15
		c-0.9,10.44-3.39,20.65-2.69,31.42c0.61,9.42-2.19,19.02-2.88,28.59c-1.22,16.77-1.14,33.67-3.2,50.33
		c-1.9,15.43-0.38,30.58,1.35,45.66c3.13,27.29,9.37,54.03,17.31,80.35c4.38,14.52,7.65,29.39,14.99,42.95
		c3.21,5.93,5.06,12.59,7.61,19.15c-2.38,0.6-3.32,0.96-4.29,1.06c-12.74,1.35-24.43,4.52-33.47,14.8
		c-4.07,4.64-9.58,8.22-14.94,11.44c-2.84,1.71-7.15,2.97-10.12,2.1c-13.13-3.87-25.74,0.02-38.3,2.12
		c-11.62,1.95-22.91,5.93-35.14,9.23c-0.74-0.98-2.56-2.61-3.43-4.65c-3.29-7.76-8.74-13.1-16.46-16.43
		c-1.98-0.85-3.4-2.94-5.14-4.39c-11.16-9.27-23.85-13.96-38.51-13.45c-17.35,0.6-32.54,8.11-48.08,14.5
		c-3.77,1.55-5.96,4.85-4.57,8.86c1.31,3.79,3.83,7.1,8.81,6.16c2.26-0.43,4.59-0.79,6.7-1.65c6.07-2.47,11.83-6.15,18.11-7.58
		c11.12-2.54,22.39-6.59,33.96-1.12c10.98,5.19,20.08,12.77,28.13,21.64c1.76,1.94,2.13,5.13,3.02,7.43
		c-1.61,1.42-2.29,2.15-3.1,2.7c-1.1,0.75-2.25,1.42-3.45,2.01c-11.64,5.68-17.5,15.63-19.65,27.82
		c-1.51,8.56,3.72,15.28,12.4,17.36c13.54,3.24,26.46-3.25,31.93-16.91c2.56-6.38,4.19-13.29,5.15-20.11
		c0.6-4.26,2.24-7.08,5.9-8.33c9.06-3.08,18.15-6.21,27.44-8.42c5.42-1.29,11.38-0.24,16.86-1.36c4.63-0.95,8.38-0.44,11.86,2.17
		c-0.79,4.69-1.94,9.22-2.22,13.81c-0.28,4.62,0.08,9.31,0.55,13.93c0.57,5.56,3.28,10.18,8.26,12.75
		c16.27,8.39,34.86-3.05,33.22-20.98c-0.54-5.84-4.49-11.48-7.43-16.92c-1.63-3.02-4.39-5.43-6.51-7.97
		c13.5-15.28,37.38-28,50.55-23.34c4.05,8.56,8.18,16.48,11.61,24.7c13.66,32.74,28.24,65,47.78,94.75
		c5.96,9.08,12.18,18,18.54,26.8c4.66,6.44,9.91,12.45,14.61,18.87c7.4,10.1,13.86,20.97,21.97,30.45
		c10.49,12.26,22.08,23.59,33.45,35.06c3.42,3.46,7.81,5.93,11.53,9.12c11.07,9.52,21.63,19.7,33.16,28.62
		c9.9,7.65,20.81,14.01,31.37,20.77c7.24,4.64,14.33,9.69,22.07,13.32c12.2,5.73,24.85,10.53,37.39,15.54
		c11.35,4.54,22.69,9.16,34.24,13.15c13.95,4.82,28.07,9.14,42.19,13.42c10.43,3.16,20.91,6.18,31.49,8.78
		c19.71,4.86,39.87,5.98,60.02,5.32c12.86-0.42,25.79-1.83,38.45-4.13c11.02-2,21.61-6.24,32.54-8.85
		c24.54-5.86,46.66-17.16,67.98-30.09c21.14-12.82,39.96-28.69,56.71-46.8c8.07-8.72,15.41-18.25,22.07-28.1
		c6.44-9.52,11.49-19.97,17.32-29.91c4.2-7.15,8.95-13.98,12.96-21.22c5.11-9.24,10.38-18.48,14.37-28.21
		c5.12-12.51,9.16-25.47,13.44-38.31c6.67-20.02,13.72-39.93,17.7-60.74c0.38-2,1.03-3.95,2.22-8.44
		c4.98,8.55,8.93,14.87,12.4,21.43c4.19,7.91,7.45,16.34,12.03,24c9.45,15.8,14.23,31.05,4.86,49.33
		c-8.37,16.32-13.59,34.24-20.72,51.23c-8.96,21.36-22.38,40.09-38.41,56.45c-11.56,11.8-21.03,24.8-28.82,38.99
		c-12.21,22.24-29.29,39.46-49.34,54.72c-14.03,10.68-15.51,10.42-11.66,29.16c1.2,5.84,2.03,11.79,3.77,17.47
		c4.14,13.52,7.59,26.95,17.15,38.61c12.08,14.75,19.88,32.06,18.8,52.16c-0.46,8.52-0.08,17.09-0.08,26.75
		c-8.18,6.96-18.29,10.81-28.89,10.71c-15.89-0.15-31.36,3.93-47.46,2.44c-16.38-1.52-20.6-3.34-25.44-19.34
		c-3.15-10.43-5.02-21.41-9.45-31.25c-11.27-24.99-17.06-50.75-16.26-78.23c0.42-14.22-4.6-27.33-12.56-39.06
		c-2.52-3.72-6.8-5.04-11.44-3.74c-8.45,2.38-10.8,8.97-5.74,17.12c5.13,8.25,9.44,16.6,9.77,26.68c0.33,9.95,1.91,19.87,1.99,29.81
		c0.1,13.63,4.74,26.02,9,38.58c5.42,15.99,11.24,31.85,16.2,47.97c2.25,7.32,3.54,14.59,9.65,20.24c2.25,2.08,2.75,6.52,3.19,9.99
		c0.83,6.57,0.56,13.3,1.6,19.82c3.99,24.81,12.25,47.4,34.02,62.61c11.61,8.11,23.91,14.89,38.33,15.32
		c9.11,0.27,18.73,0.84,26.76-5.25c7.08-5.36,13.94-11.02,21.15-16.2c10-7.18,14.25-17.72,15.24-29.01
		c1.33-15.18,1.02-30.43-2.11-45.64c-3.11-15.14-4.92-30.56-6.87-45.92c-0.82-6.48,0-13.16-0.84-19.63
		c-2.22-17.19-6.6-33.81-15.59-48.86c-2.89-4.83-6.35-9.32-9.47-14.02c-7.92-11.93-9.99-25.67-13.27-39.27
		c-2.26-9.39,0.53-14.07,7.25-19.21c8.14-6.22,15.93-13,23.32-20.11c12.02-11.57,20.84-25.58,28.8-40.14
		c9.66-17.69,24.7-31.18,36.58-47.12c12.11-16.25,23.78-32.77,31.27-51.81c6.78-17.25,13.29-34.62,20.47-51.7
		c8.83-21.01,4.2-40.13-6.93-58.65c-2.88-4.79-6.16-9.49-8.12-14.66c-5.97-15.78-15.63-29.22-26.17-42.04
		c-3.05-3.71-4.42-7.16-3.98-11.68c1.61-16.76,1.97-33.55,0.62-50.34c-1.01-12.54-1.15-25.15-7.02-36.9
		c-4.1-8.2-6.64-17.19-10.73-25.4c-3.54-7.11-8.02-13.79-12.55-20.34c-3.38-4.89-7.32-9.43-11.35-13.81
		c-11.27-12.27-17.44-27.14-23.33-42.44c-8.78-22.79-8.77-46.09-5.58-69.59c2.14-15.76,9.6-29.64,18.55-42.53
		c2.25-3.24,6.36-6.15,10.16-7.16c11.77-3.11,23.78-5.4,36.05-5.55c14.17-0.17,28.39,0.27,42.51-0.68
		c18.84-1.27,37.63-3.36,56.39-5.56c24.7-2.9,49.34-6.34,74.03-9.36c7.23-0.89,14.54-1.57,21.82-1.57c8.46,0,16.92,0.78,25.36,1.37
		c7.52,0.52,15.08,0.89,22.53,1.93c22.5,3.14,44.96,3.31,67.37-0.54c23.18-3.98,41.03-18.12,58.65-32.15
		c14.25-11.34,27.74-23.67,41.2-35.96c9.07-8.28,17.23-17.38,21.46-29.4c2.63-7.46,6.76-14.43,8.99-21.99
		c1.36-4.58,3.76-6.51,7.76-7.9c27.07-9.4,48.83-26.75,68.44-46.91c7.79-8,14.77-17.02,20.83-26.41c5.59-8.67,9.65-18.65,4.86-29.18
		c-5.94-13.06-14.32-23.95-29.14-27.98c-0.6-0.16-0.92-1.4-1.39-2.18c7.66-3.19,15.1-6.06,22.33-9.36
		c11.39-5.2,22.64-10.72,33.96-16.08c21.42-10.13,41.67-21.72,57.05-40.56c10.8-13.23,13.71-28.23,5.6-43.13
		c-7.35-13.52-12.65-28.71-28.15-37.12c14.47-9.91,27.5-19.67,41.34-28.1c19.83-12.06,36.01-27.23,45.88-48.47
		c7.87-16.93,14.45-34.11,14.3-53.39c-0.13-15.62-2.34-30.95-4.23-46.35c-0.88-7.21-3.16-14.36-3.2-21.55
		c-0.04-5.96-2.28-9.95-7.08-11.81c-4.78-1.85-8.81,1.49-12.33,4.64c-0.73,0.66-1.24,1.56-1.89,2.31
		c-7.37,8.49-14.39,17.33-22.24,25.35c-7.4,7.56-15,15.25-23.72,21.09c-12.91,8.65-26.44,16.64-40.49,23.24
		c-24.78,11.65-51.42,17.72-78.36,21.67c-33.17,4.86-66.72,5.5-100.19,5.98c-22.6,0.32-45.22-0.74-67.83-1.23
		c-19.57-0.42-39.16-0.66-58.71-1.46c-13.04-0.54-25.77-0.12-37.79,5.67c-2.2,1.06-4.47,1.96-6.83,2.99
		c1.56-14.61,3.82-28.31,4.23-42.07c0.31-10.36,4.23-18.53,10.4-26.09c3.57-4.37,7.19-8.88,11.52-12.44
		c17.64-14.54,23.7-34.94,27.73-55.9c2.71-14.13,8.86-25.46,19.55-34.65c6.76-5.81,14.22-10.99,20.13-17.56
		c9.63-10.72,22.26-10.97,34.05-13c3.25,4.3,5.76,7.61,7.96,10.52c5.13-0.71,8-2.14,8.69-6.69c0.84-5.56,0.52-10.6-3.88-14.72
		c-6.95-6.53-15.79-6.56-23.51-4.04c-11.56,3.77-23.74,6.89-33.32,15.24c-7.5,6.54-15.12,12.94-22.35,19.76
		c-5.72,5.39-10.93,11.33-17.72,18.45c-1.25-2.03-1.89-4.54-3.41-5.31c-6.1-3.1-12.67-8.37-18.72-7.95
		c-26.47,1.84-49.95,11.81-70.05,29.66c-12.9,11.46-26.14,22.59-39.87,33.02c-26.14,19.85-57.87,27.87-87.58,40.13
		c-3.31,1.37-6.85,2.19-10.26,3.33c-4.68,1.55-9.27,3.42-14.03,4.69c-10.24,2.75-20.51,5.43-30.86,7.72
		c-10.73,2.37-21.42,1.7-30.61-4.7c-8.95-6.24-17.19-13.5-25.74-20.32c-2.5-1.99-3.94-4.09-2.83-7.7c1.51-4.9-1.08-8.17-5.15-10.42
		c-2.2,0.78-4.2,1.19-5.89,2.15c-7.1,4.02-9.27,19.56-2.99,24.53c11.67,9.24,23.44,18.46,35.89,26.57
		c5.27,3.43,12.26,4.82,18.67,5.79c15.93,2.43,30.84-3.71,45.95-7.11c29.48-6.63,57.07-19,84.95-30.22
		c22.2-8.94,42.32-21.78,60.43-37.61c8.25-7.22,16.72-14.2,25.16-21.19c14.43-11.95,31.05-19.1,49.5-21.96
		c2.39-0.37,5.31-0.02,7.45,1.05c8.73,4.39,15.51,15.51,11.24,26.58c-0.95,2.45-1.84,4.94-2.53,7.48
		c-3.49,12.83-8.06,24.96-17.9,34.65c-6.12,6.01-11.75,12.63-16.83,19.54c-3.24,4.41-5.95,9.64-7.28,14.91
		c-1.6,6.35-1.28,13.17-2.16,19.73c-1.15,8.51-1.33,17.46-4.27,25.36c-8.47,22.79-22.35,41.88-42.56,55.96
		c-1.36,0.95-2.73,1.93-3.93,3.07c-13.87,13.14-27.46,26.59-41.63,39.39c-15.43,13.95-31.23,27.51-47.19,40.85
		c-15.88,13.27-29.37,28.69-43.45,43.81c-32.58,34.98-29.4,50.88-19.39,73.28c2.28,4.52,0.89,11.58-2.05,16.39
		C1482.2,1652.65,1475.53,1655.8,1467.28,1651.27z M1240.11,1404.13c11.36,9.19,18.94,14.22,27.89,25.61
		c11.48,14.6,20.59,31.07,30.42,46.93c4.11,6.63,5.16,9.22,9.84,17.99c-5.07,3.9-9.04,6.83-12.87,9.91
		c-7.67,6.18-12.07,9.95-19.42,16.49c-3.81,3.39-5.19,3.06-9.27-1.2c-16.04-16.75-33.32-32.37-48.66-49.71
		c-32.79-35.41-34-45.91-34.51-49.71c2.62,1.16,5.36,2.11,7.83,3.53c5.39,3.1,10.41,6.95,16.05,9.43c2.44,1.07,4.78-2.33,6.88-3.94
		c1.9-1.45,3.29-5.77,2.57-8.08c-4.7-14.96-6.08-25.18-11.17-40.02c-0.3-0.88-0.22-1.9-0.32-2.85c1.33,0.15,2.96-0.13,3.96,0.53
		C1220.35,1386.3,1229.87,1395.85,1240.11,1404.13z M1272.24,1739.79c-0.85-4.26-4.08-7.98-5.78-12.14
		c-1.85-4.55-0.08-7.3,4.98-7.86c4.96-0.55,8.04-0.27,12.83-1.53c12.97-3.41,24.88-0.37,31.63,8.61c6.22,8.26,7.9,19.48,1.32,29.92
		c-9.41,14.92-24.86,22.68-39.32,30.7c-15.4,8.54-32.37,14.36-48.91,20.7c-19.12,7.33-32.53,14.43-53.75,6.2
		c-28.91-16.64-10.97-61.19,50.73-88.59c6.2-2.89,10.41-0.42,11.44,6.52c1.16,7.87,1.27,16.04,3.61,23.53
		c1.22,3.9,5.91,8.72,9.66,9.36c5.53,0.93,8.74-4.03,7.34-9.8c-1.04-4.27-3.54-8.15-5.04-12.34c-4.34-12.05-9.09-24-12.62-36.29
		c-9.87-34.35-18.93-68.93-28.85-103.26c-6.18-21.38-13.52-42.42-20.01-63.71c-4.3-14.12-7.16-28.72-12.2-42.55
		c-5.37-14.74-11.67-29.31-19.21-43.05c-5.95-10.84-8.39-18.9,4.2-26.6c3.9-2.38,3.92-2,5.32,1.33c2.4,5.71,4.87,11.45,7.95,16.8
		c3.51,6.09,9.84,11.31,11.23,17.71c4.02,18.6,5.75,37.68,9.18,56.43c3.43,18.77,7.17,37.54,12.01,55.98
		c4.08,15.54,10.25,30.51,14.95,45.9c7.3,23.93,14.34,47.95,21.11,72.04c4.68,16.65,8.41,33.57,13.39,50.12
		c0.68,2.26,6.09,3.1,9.31,4.59C1270.04,1745.58,1272.76,1742.36,1272.24,1739.79z M1214.99,1282.08
		c-4,19.01-7.62,38.21-12.17,57.17c-3.62,15.07-4.04,14.73-18.71,8.92c-2.69-1.07-9.1,0.06-9.19,0.75
		c-0.6,4.76-1.85,11.14,0.6,14.28c9,11.52,19.34,22,21,37.53c0.16,1.5-0.19,3.05-0.3,4.58c-1.26-0.42-2.51-0.87-3.78-1.25
		c-8.36-2.49-16.7-5.02-25.1-7.37c-1.43-0.4-3.45-0.6-4.58,0.1c-9.09,5.64-22.42,1.81-31.43,7.98c-1.15,0.79-3.55-0.25-5.38-0.44
		c0.92-1.4,1.76-2.86,2.77-4.19c8.05-10.6,18.58-22.64,25.79-33.79c1.9-2.94,0.6-9.15-1.26-12.84c-0.94-1.87-6.39-1.56-9.83-2
		c-1.32-0.17-2.83,0.74-4.06,0.43c-13.39-3.43-25.18,2.99-37.09,6.75c-10.38,3.28-19.91,9.25-29.82,14.02
		c-6.48,3.12-12.95,6.24-19.47,9.27c-0.85,0.4-2.11,0.6-2.94,0.28c-6.28-2.46-12.52-5-18.69-7.7c-1.09-0.48-1.78-1.85-2.66-2.81
		c0.9-0.75,1.69-1.7,2.71-2.2c13.32-6.57,26.54-13.38,40.06-19.52c14.34-6.52,29.25-11.81,43.41-18.67
		c24.52-11.87,48.73-24.38,72.88-36.99c4.68-2.44,8.22-6.97,12.73-9.83c3.56-2.26,7.79-3.49,11.78-5
		C1212.58,1279.4,1213.42,1280.59,1214.99,1282.08z M1104.1,1427.75c1.91,1.96,8.32,1.68,11.35,0c10.18-5.65,13.43-12.61,24.77-9.66
		c0.73,0.19,1.72,2.8,1.33,3.31c-2.84,3.66-5.84,7.24-9.11,10.53c-11.77,11.84-21.55,20.29-33.59,31.85
		c-4.79,4.6-10.42,8.31-15.46,12.67c-14.49,12.53-28.91,25.13-43.27,37.79c-6.96,6.13-6.55,6.24-13.61,12.26
		c-3.14,2.68-6.44,4.54-8.14-2.06c-3.54-13.79-4.98-19.63-9.4-33.16c-3.7-11.35-7.83-18.3-11.86-29.56c-0.75-2.1-0.69-5.65,0.6-7.14
		c11.73-13.51,20-25.76,33.9-36.59c26.28-20.48,53.49-38.8,85.79-48.03c1.48-0.42,3.07-0.44,3.44-0.49c1.89,0.14,2.6,0.31,3.28,0.22
		c2.72-0.37,5.42-0.83,8.13-1.25c-1.07,3.33-1.34,7.29-3.36,9.87c-8.41,10.73-15.41,20.65-24.41,30.89
		C1099.26,1415.15,1100.41,1423.96,1104.1,1427.75z M1153.17,1187.98c1.33-11.75,0.15-23.78,0.15-35.68c0-1.16,0.31-2.32,0.48-3.49
		c0.89,0.65,2.14,1.12,2.6,1.99c8.29,15.59,16.55,31.18,24.6,46.89c1.05,2.05,0.93,4.71,1.59,8.41c-1.13,3.23-2.64,7.4-4.05,11.61
		c-0.59,1.77-1.81,3.87-1.32,5.35c2.12,6.39-0.36,10.02-5.98,12.85c-7.89,3.97-15.51,8.5-23.4,12.47c-0.6,0.3-3.68-2.08-3.55-2.91
		C1147.16,1226.29,1151,1207.23,1153.17,1187.98z M1098.93,1289.09c24.02-12.74,48.05-25.49,72.33-37.71
		c10.05-5.06,20.69-9.03,31.26-12.96c2.76-1.03,8.93-0.48,9,0.01c0.71,4.91,2.43,11.15,0.2,14.76
		c-13.61,22.11-37.14,31.87-58.46,43.9c-18.7,10.55-38.3,19.58-57.87,28.5c-20.15,9.18-40.7,17.51-61.17,25.97
		c-5.78,2.39-11.9,3.93-20.8,6.8c-7.47-2.57-16.54-5.63-25.51-8.98c-0.46-0.17-0.5-3.85,0.11-4.14
		c17.35-8.28,35.06-15.85,52.2-24.54C1060.03,1310.65,1079.29,1299.51,1098.93,1289.09z M1073.43,1260.5
		c0.69,0.65,1.63,1.18,2.03,1.98c1.96,3.99,3.78,8.06,5.53,11.86c-0.24,0.89-0.37,1.36-0.49,1.83c-0.38-0.29-0.9-0.49-1.12-0.87
		c-2.28-3.84-4.62-7.66-6.68-11.63C1072.32,1262.93,1073.15,1261.57,1073.43,1260.5z M1065.06,1240.93c1.85,3.32,3.43,5.53,4.23,8
		c0.23,0.71-1.76,2.16-2.74,3.26c-1.79-2.33-3.71-4.57-5.21-7.07C1061.14,1244.78,1063.02,1243.19,1065.06,1240.93z
		 M1057.25,1230.58c-2.01-0.43-4.74-0.18-5.89-1.41c-2.56-2.76-5.08-6.02-6.16-9.53c-0.67-2.17,1.34-5.17,2.84-10.09
		c1.74,3.44,2.12,4.28,2.58,5.07c2.11,3.59,4.43,7.07,6.26,10.79C1057.59,1226.84,1057.16,1228.83,1057.25,1230.58z M898.24,961.27
		c-1.2-3.14-1.84-6.5-2.73-9.76c2.94,1.97,6,3.8,8.78,5.97c1.46,1.14,2.52,2.85,3.6,4.4c1.04,1.48,1.89,3.1,2.82,4.66
		c-2.21,0.92-4.41,1.83-8.1,3.36C901.05,966.89,899.35,964.19,898.24,961.27z M911.73,983.9c-0.71-1.49,0.34-5.12,1.7-5.95
		c1.58-0.97,5.79-0.74,6.43,0.36c2.37,4.12,4.49,8.4,6.4,12.76c-2.82-0.71-5.62-1.52-8.47-1.72c-1.07-0.07-2.14-0.14-3.21-0.2
		C913.55,987.44,912.59,985.7,911.73,983.9z M939.25,1032.57c-4.2-6.56-7.86-10.71-9.53-15.55c-0.64-1.86,1.04-4.55,2.46-7.06
		c1.72,0.36,3.43,0.76,5.13,1.18c2.46,4.26,4.91,8.54,6.74,13.07C944.59,1025.54,941.89,1028.17,939.25,1032.57z M960.07,1062.3
		c-1.61-0.54-3.95-0.59-4.69-1.71c-3.15-4.74-5.86-9.78-8.63-14.76c-0.69-1.25-1.8-3.39-1.32-3.96c1.38-1.65,3.46-2.71,5.88-4.43
		c0.94,1.49,1.8,2.64,2.44,3.9c2.65,5.23,5.45,10.4,7.69,15.8C961.98,1058.44,960.58,1060.55,960.07,1062.3z M976.83,1095.12
		c-0.9,0.22-2.61-1.07-3.31-2.11c-2.88-4.29-5.75-8.62-8.07-13.22c-0.72-1.42-0.19-3.98,0.66-5.54c0.91-1.68,2.86-2.81,4.35-4.18
		c0.93,1.73,1.95,3.42,2.78,5.2c2.42,5.15,4.76,10.34,8.04,17.49C980.43,1093.25,978.74,1094.64,976.83,1095.12z M992.11,1123.98
		c-0.36,0.61-0.26,1.49-0.37,2.25c-0.29-0.6-0.57-1.21-0.88-1.8c-3.12-5.98-6.37-11.9-9.26-17.98c-0.59-1.24,0.18-3.12,0.51-6.66
		c3.33,2.47,5.03,3.07,5.55,4.22C990.53,1110.32,996.83,1115.94,992.11,1123.98z M1009.31,1152.61c-0.44,0.23-2.25-1.34-2.9-2.41
		c-2.99-4.89-5.85-9.87-8.63-14.88c-0.89-1.61-1.4-3.43-2.08-5.16c2.19,0.06,5.5-0.78,6.37,0.32c4.38,5.52,8.12,11.55,12.49,17.99
		C1012.68,1150.04,1011.15,1151.62,1009.31,1152.61z M1020.63,1175.66c-1.18-3.79-1.98-7.69-2.91-11.56
		c1.52,0.11,3.78-0.38,4.44,0.43c2.16,2.65,3.74,5.78,5.93,9.35c-1.54,1.26-2.93,2.74-4.64,3.58
		C1022.9,1177.74,1020.9,1176.53,1020.63,1175.66z M1015.59,1133.76c-2.83-4.99-3.37-11.25-5.19-16.85
		c-0.57-1.76-1.59-4.27-2.96-4.71c-9.49-3.05-12.9-9.85-13.06-19.17c-0.03-1.55-0.97-4.2-1.97-4.45
		c-9.21-2.28-9.13-11.51-12.72-17.53c-9.03-15.16-16.37-31.31-24.88-46.79c-1.77-3.21-3.6-6.39-5.47-9.55
		c5.25,1.79,10.42,3.87,15.52,6.22c18.31,8.44,31.94,22.63,45.25,37c9.98,10.77,16.84,23.74,21.5,37.72
		c6.46,19.42,12.78,38.88,19.54,59.47c-0.99,1.84-2.5,5.18-4.47,8.23c-2.26,3.49-4.52,6.98-6.79,10.47
		C1031.64,1160.56,1023.29,1147.34,1015.59,1133.76z M1405.91,1903.91c-15.88,18.73-25.62,40.63-28.66,64.48
		c-3.58,28.07,0.25,55.82,11.05,82.43c4.8,11.83,11.09,22.45,18.94,32.51c8.5,10.89,17.28,21.5,24.59,33.45
		c16.91,27.62,21.34,57.98,19.31,88.96c-1.96,30.02-6.27,60.01-16.71,88.71c-6.68,18.36-12.5,37.04-18.27,55.71
		c-3.97,12.85-11.74,23.62-18.19,35.11c-8.61,15.33-17.24,30.67-26.5,45.61c-16.02,25.87-38.12,46.08-62.69,63.42
		c-17.88,12.61-37.27,22.67-58.12,30.05c-27.75,9.82-55.72,17.72-85.5,15.92c-14.84-0.9-30.04-0.85-44.38-4.21
		c-26.02-6.08-51.68-13.84-77.17-21.92c-18.47-5.86-36.45-13.29-54.04-21.54c-11.35-5.32-23.46-9.63-33.68-16.64
		c-18.99-13.03-39.69-23.93-55.58-41.19c-0.22-0.24-0.55-0.37-0.81-0.58c-10.05-8.08-20.25-15.99-30.06-24.35
		c-3.74-3.18-6.57-7.42-9.83-11.17c-8.01-9.21-16.45-18.09-23.92-27.72c-8.1-10.45-14.85-21.96-23.03-32.34
		c-7.8-9.91-15.92-19.41-21.92-30.71c-9.48-17.86-20.55-34.89-29.7-52.89c-10.21-20.08-19.15-40.82-28.43-61.37
		c-4.93-10.9-10.01-21.79-13.95-33.06c-5.11-14.64-9.59-29.54-13.56-44.53c-5.5-20.76-11.28-41.53-15.09-62.63
		c-4.66-25.79-5.71-52-3.82-78.23c0.38-5.27,0.61-10.56,1.15-15.81c1.45-14.1,3.01-28.19,4.55-42.28
		c1.54-14.15,2.66-28.37,4.78-42.43c1.92-12.76,4.87-25.37,7.48-38.03c1.33-6.47,2.68-12.95,4.41-19.33
		c3.8-14.03,7.74-28.03,11.83-41.97c5.31-18.08,7.42-36.92,13.67-54.81c5.89-16.85,10.73-34.07,16.2-51.08
		c5.47-17.01,11.71-33.79,16.55-50.97c4.39-15.59,6.99-31.66,11.01-47.37c3.86-15.11,7.78-30.28,12.99-44.95
		c10.93-30.76,27.1-58.95,45.71-85.61c9.71-13.91,22.34-25.42,35.85-35.74c13.16-10.04,26.87-19.38,39.74-29.78
		c9.26-7.48,18.35-15.49,26.06-24.51c15.1-17.65,29.26-36.11,43.66-54.36c4.69-5.95,9.27-12.04,13.25-18.47
		c7.27-11.72,13.63-24.02,21.16-35.55c5.59-8.56,11.66-16.81,17.59-25.14c12.31,23.02,23.73,46.52,35.41,69.87
		c0.6,1.2-0.7,4.65-2,5.31c-20.89,10.49-41.74,21.07-62.98,30.81c-11.24,5.16-23.25,8.63-34.8,13.14c-2.83,1.1-7.53,3.49-7.4,4.91
		c0.39,4.19,1.6,10.18,4.57,11.93c15.87,9.31,32.45,17.38,48.61,26.21c6.19,3.39,11.97,7.57,17.77,11.62
		c0.76,0.53,1.22,3.09,0.72,3.58c-4.08,3.99-8.49,7.64-12.69,11.51c-12.66,11.67-25.2,23.47-38.03,34.95
		c-1.07,0.96-4.39,0.58-5.89-0.37c-2.43-1.54-4.11-4.22-6.31-6.18c-4.78-4.28-11.68-2.45-12.08,1.71
		c-0.88,9.07-7.59,12.18-12.54,17.4c-13.04,13.74-25.5,27.92-31.47,46.48c-0.3,0.92-1.09,1.68-1.66,2.51
		c-0.46-0.87-1.16-1.69-1.34-2.61c-1.46-7.5-3.72-14.99-4.01-22.55c-0.62-16.25-5.78-30.8-14.04-44.53
		c-2.56-4.25-6.12-6.95-9.76-2.69c-1.73,2.03-0.64,22.71,0.53,25.83c7.22,16.24,12,51.66,16.32,76.45
		c1.02,5.83-0.32,12.03-0.14,18.05c0.13,4.27-0.09,9.18,1.95,12.52c1.24,2.03,16.09,3.8,16.62,2.85c2.31-4.13,1.73-24.23,2.45-30.29
		c3.44-28.75,16.7-47.81,37.82-66.25c7.91-6.91,13.7-6.23,18.47,2.83c6.47,12.3,11.33,21.99,15.75,35.1
		c5.78,17.16,10.68,34.79,13.92,52.59c2.44,13.43,0.39,19.67-1.04,33.2c-0.85,8.07-5.79,12.76-9.57,20.6
		c-9.16,19-18.3,38.01-27.15,57.16c-6.62,14.32-11.41,29.66-19.4,43.14c-15.69,26.46-29.43,47.84-56.91,64.71
		c-8.67,5.32-12.99-3.54-18.65-12.22c-9.18-14.07-14.9-20.64-23.04-35.35c-8.64-15.61-17.14-31.37-24.51-47.6
		c-7.23-15.92-16.38-30.2-29.31-41.93c-1.46-1.33-6.82-2.79-7.74-1.91c-1.5,1.43-5.03,13.65-4.72,15.88
		c0.34,2.38,1.96,4.76,3.51,6.77c7.47,9.63,16.2,18.48,22.37,28.87c6.3,10.61,9.7,22.9,15.15,34.07
		c5.31,10.88,11.65,21.25,17.43,31.9c4.62,8.52,8.57,17.46,13.77,25.6c4.91,7.69,10.68,14.94,16.89,21.62
		c2.21,2.38,7.19,4.14,10.26,3.42c14.09-3.34,24.69-12.81,34.45-22.75c23.15-23.58,42.1-50.24,55.63-80.5
		c5.59-12.51,9.91-25.61,16-37.86c5.91-11.88,13.39-22.97,20.07-34.47c3.73-6.41,7.72-12.72,10.76-19.46
		c4.93-10.95,10.59-21.93,5.59-34.65c-1.39-3.53-2.5-7.4-2.61-11.15c-0.11-3.42,0.26-7.74,2.24-10.17
		c6.23-7.63,12.97-14.92,20.14-21.68c15.23-14.38,30.97-28.23,46.28-42.53c13.94-13.02,27.54-26.39,41.4-39.5
		c4.91-4.65,9.11-2.49,11.7,2.56c7.63,14.89,15.8,29.61,22.03,45.1c4.74,11.8,6.46,24.79,10.18,37.05
		c9.56,31.52,19.47,62.94,29.26,94.39c2.37,7.63,4.99,15.18,7.15,22.87c4.59,16.34,9.08,32.71,13.25,49.16
		c0.46,1.81-0.78,5.26-2.29,6.16c-7.67,4.53-16.14,7.81-23.46,12.79c-12.72,6.3-43.72,31.41-51.62,49.69
		c-2.77,8.12-6.18,19.13-4.47,27.8c3.09,15.69,11.65,28.05,30.19,30.67c26.21,3.7,48.86-8.25,72.48-15.3
		c13.45-4.01,25.95-11.5,38.5-18.13c16.31-8.62,32.62-16.57,42.07-34.65c12.16-23.27,4.1-41.86-15.97-54.5
		c-12.07-7.6-25.37-4.05-38.24-3.03c-13.49,1.07-15.38-0.33-19.07-13.68c-4.47-16.2-9.4-32.27-14.19-48.37
		c-4.7-15.82-9.82-31.52-14.08-47.45c-4.67-17.45-9.08-35-12.65-52.7c-3.93-19.46-6.77-39.14-10.03-58.73
		c-0.13-0.76,0.39-1.63,0.6-2.45c0.73,0.23,1.67,0.25,2.17,0.72c4.56,4.28,9.21,8.49,13.54,12.99
		c11.26,11.73,22.01,23.97,33.7,35.24c5.14,4.96,6.92,7.84,1.81,14.25c-7.9,9.92-6.74,13.06,3.81,20.12
		c1.26,0.84,2.35,2.08,3.22,3.34c5.03,7.2,10.14,14.35,14.9,21.72c11.22,17.4,22.5,34.78,33.3,52.44
		c9.22,15.07,16.65,31.38,26.98,45.6c13.24,18.24,28.39,35.12,43.14,52.21c5.15,5.97,10.96,11.79,17.55,15.99
		c4.72,3.01,9.57,5.82,14.47,8.55c-8.78,18.61-17.97,37.1-21.06,57.79c-0.76,5.1-0.99,10.62,0.11,15.61
		c2.86,13,7.31,25.47,14.23,37.05C1416.1,1889.15,1415.8,1892.24,1405.91,1903.91z M1983.15,1688.94
		c-9.09,12.54-19.23,24.2-31.87,33.88c-10.53,8.07-20.73,16.41-32.36,22.85c-14.99,8.31-31.26,11.9-48.18,13.22
		c-11.51,0.89-22.99,2.39-34.51,2.75c-14.6,0.46-29.24,0.4-43.84-0.09c-10.22-0.35-19.19-5-27.18-11.09
		c-2.04-1.55-2.77-4.99-3.78-7.69c-1.3-3.47-3.66-6.15-7.23-5.73c-4.08,0.47-5.73,3.75-5.91,7.93c-0.3,7.08,1.73,12.69,7.36,17.55
		c10.54,9.11,22.31,13.86,36.32,13.9c15.25,0.04,30.51,1.32,45.75,1.07c12.56-0.2,25.09-1.87,37.64-2.81
		c2.6-0.19,5.23-0.03,8.23-0.03c-4.36,17.32-13.16,31.4-26.44,42.65c-16.69,14.14-32.91,28.93-50.47,41.92
		c-13.45,9.95-27.79,18.75-45.55,20.85c-10.11,1.19-19.91,2.99-30.19,1.9c-19.37-2.05-38.79-3.77-58.23-5.08
		c-9.51-0.64-19.18-0.82-28.66,0.09c-26.4,2.54-52.73,5.76-79.1,8.69c-19.38,2.16-38.75,4.44-58.16,6.35
		c-6.27,0.62-12.66-0.01-18.97,0.36c-15.55,0.93-31.09,2.13-46.64,3.15c-2.63,0.17-5.29,0.02-7.88,0.02
		c-1.59-12.68-4.84-24.28-11.28-35.44c-7.82-13.54-11.73-28.03-6.5-44.47c4.51-14.18,9.81-27.96,16.08-41.29
		c1.73,0.92,3.46,1.84,5.19,2.77c9.16,4.92,18.11,10.61,27.83,14.05c17.54,6.2,35.59,10.99,53.44,16.32
		c19.27,5.75,39.09,6.63,59,6.09c14.79-0.4,27.2-6.85,37.01-17.5c10.99-11.93,26.1-29.47,29.68-53.41
		c1.08-7.21,2.87-14.57,2.35-21.71c-0.75-10.21-3.38-20.27-5.11-30.42c-1.54-9.01,12.93-8.35,33.05-8.11
		c8.6,0.1,17.18,1.05,25.77,1.45c15.23,0.72,30.46,1.81,45.69,1.83c11.87,0.02,23.76-1.22,35.62-2.14
		c18.82-1.46,37.65-2.87,56.09-7.25c11.6-2.76,23.18-5.58,34.76-8.44c15.09-3.72,30.26-7.17,45.21-11.35
		c11.12-3.11,21.96-7.21,31.5-10.4c7.16,2.13,13.03,4.25,19.06,5.59C1985.78,1655.71,1993.95,1674.04,1983.15,1688.94z
		 M1622.93,1684.94c0.1,2.28,0.13,4.58,0.06,6.92c-0.03,0.85,0.25,1.72,0.5,2.55c6.39,21.22,5.33,41.67-3.54,62.37
		c-8.86,20.67-19.37,32.28-40.75,38.15c-12.01,3.3-22.15-0.96-34.77-1.46c-11.32-0.44-23.13-1.97-33.66-5.88
		c-20.7-7.69-40.87-13.79-60.87-23.22c-3.57-1.68-7.1-3.41-10.6-5.19c-5.18-2.49-12.99-6.14-16.91-9.42
		c-11.08-6.8-21.49-14.67-30.78-24.37c-17.06-17.83-36.23-36.6-47.27-59.7c-7.2-15.05-16.84-28.93-25.39-43.33
		c-8.93-15.05-17.54-30.3-26.89-45.09c-11.47-20.52-15.22-27.17-10.52-31.48c1.34-3.6,3.5-7.23,6.21-9.92
		c5.28-5.24,11.93-9.2,16.69-14.81c16.49-14.34,26.24-16.97,38.37,3.86c9.46,12.99,18.33,26.42,27.33,39.74
		c9.83,14.54,18.7,29.82,29.49,43.6c10.11,12.89,22.12,24.3,33.43,36.24c4.84,5.11,9.52,10.6,15.16,14.67
		c4.77,3.44,9.86,6.43,14.95,9.42c10.97,6.4,13.56,7.23,17.3,7.09c6.4-0.83,14.63-4.32,17.66-7c7.52-6.66,10.88-20.7,7.14-27.41
		c-21.26-38.13-5.65-47.16,2.5-57.67c22.57-29.07,63.34-62.92,95.2-89.16c14.81-12.2,27.67-26.62,41.79-39.61
		c7.3-6.72,15.99-12.02,22.77-19.18c13.18-13.93,28.22-24.45,45.79-32.27c11.01-4.9,21.3-7.53,33.5-6.06
		c13.41,1.62,27.12,0.7,40.7,1.03c15.27,0.37,30.53,1.18,45.8,1.27c31.61,0.19,63.23,0.69,94.82-0.22
		c18.52-0.53,37.13-2.61,55.43-5.6c33.51-5.48,65.76-15.07,95.7-31.88c12.81-7.19,25.42-14.38,36.01-24.6
		c6.43-6.2,12.53-12.74,18.71-19.2c3.18-3.32,6.21-6.79,10.57-11.57c1.77,10.78,3.84,19.84,4.63,29.03
		c1.45,16.87,2.73,34-3.59,50.19c-5.29,13.57-11.06,27.18-20.16,38.68c-4.64,5.86-10.88,10.67-17.04,15.06
		c-14.61,10.41-29.28,20.8-44.54,30.19c-9.83,6.05-20.65,10.56-31.21,15.35c-19.86,9.03-39.62,18.35-59.85,26.46
		c-20.57,8.24-41.49,15.75-62.59,22.54c-32.5,10.46-65.16,20.49-98.02,29.76c-14.3,4.03-29.23,5.9-43.93,8.41
		c-8.47,1.45-17.05,2.36-25.6,3.24c-2.93,0.3-5.95-0.21-8.92-0.38c-3.56-0.2-7.12-0.41-11.25-0.66
		c-0.58,10.21,0.26,11.44,7.94,13.39c13.5,3.42,26.86,2.11,40.48,0.04c29.58-4.49,58.5-11.14,86.93-20.65
		c29.21-9.77,59.18-17.27,88.42-26.95c16.89-5.6,33-13.54,49.45-20.46c14.65-6.16,29.29-12.35,43.93-18.56
		c4.19-1.78,8.34-3.66,12.39-5.44c7.03,8.33,14.03,15.75,19.96,23.94c4.44,6.12,7.05,13.18,7.91,21.11
		c0.93,8.56-2.33,14.65-7.73,20.52c-15.45,16.76-35.13,27-55.45,36.26c-9.62,4.38-19.27,8.68-28.96,12.89
		c-9.4,4.08-18.91,7.9-28.3,12.01c-4.86,2.12-9.43,4.91-14.34,6.89c-27.45,11.09-55.98,18.45-84.94,24.34
		c-6.81,1.39-13.37,4-20.18,5.36c-15.27,3.06-30.6,5.91-45.98,8.36c-5.45,0.87-11.14,0.12-16.7,0.46
		c-16.21,0.99-32.43,3.31-48.61,2.98c-22.5-0.46-44.93-5.18-67.45-4.35c-9.3,0.35-22.77,2.18-26.06-7.24
		c-10.59-30.28-23.35-59.78-35.18-89.61c-2.42-6.12-4.66-12.32-7.43-18.28c-1.58-3.39-4.95-9.98-7.78-12.18
		c-1.16-0.9-20.41-2.92-9.91,19.24c9.42,19.88,14.76,33.72,23.97,53.69c8.01,17.38,16.74,34.56,21.19,53.04
		C1622.58,1670.51,1622.56,1681.72,1622.93,1684.94z"/>
	<path class="st0" d="M1279.99,2392.29c-4.96-4.86-9.51-10.22-13.72-15.76c-7.62-10.04-14.38-20.76-22.38-30.48
		c-6.49-7.89-10.6-16.73-14.06-26.09c-3.94-10.66-5.08-21.72-6.45-32.96c-1.53-12.49-0.64-24.43,1.85-36.42
		c4.4-21.16,5.54-42.16-2.85-62.62c-6.55-15.94-13.74-31.61-20.53-47.45c-3.17-7.4-9.3-12.15-15.31-16.69
		c-11.08-8.36-22.98-15.63-34.01-24.06c-9.21-7.04-19.41-11.56-30.53-13.7c-29.59-5.68-58.16-1.36-85.89,9.9
		c-13.9,5.64-26.59,13.2-39.29,21.24c-14.78,9.36-27.78,20.05-38.37,33.82c-6.08,7.9-12.29,15.73-17.98,23.9
		c-3.5,5.02-2.53,10.07,1.55,13.41c3.46,2.83,8.7,2.9,12.79-0.5c2.47-2.06,4.48-4.81,6.25-7.55c7.75-11.98,14.96-24.41,26.41-33.42
		c16.96-13.35,34.2-25.86,54.87-33.62c21.26-7.98,42.36-12.76,65.26-10.57c15.88,1.52,29.09,7.58,41.24,17.25
		c7.23,5.75,14.69,11.24,22.26,16.54c8.31,5.83,15.05,12.64,18.76,22.45c4.34,11.46,9.78,22.51,14.21,33.94
		c4.71,12.17,6.6,24.5,4.98,37.97c-1.93,15.97-7.56,31.31-5.85,48.07c1.33,13,0.88,26.15,4.72,38.87c0.93,3.08,1.38,6.29,2.11,9.71
		c-23.08,4.99-46.9,3.56-69.09,13.71c-0.97-2.23-1.38-4.35-2.61-5.75c-6.72-7.66-10.6-16.58-13.19-26.35
		c-4.85-18.31-6.99-37.04-9.22-55.75c-0.34-2.87,0.43-5.95,1.08-8.84c1.66-7.43,4.92-14.8,5.03-22.23
		c0.23-15.48-0.34-31.09-2.33-46.43c-0.71-5.44-5.85-10.88-10.18-15.06c-2.95-2.84-8.36-3.44-11.51,0.9
		c-4.81,6.63-11.25,11.96-13.99,20.29c-3.58,10.93-8.41,12.8-19.75,8.57c-8.66-3.23-17.13-4.65-25.74-0.23
		c-9.69,4.97-19.9,9.18-28.87,15.22c-7.4,4.98-13.32,12.09-13.68,22.11c-0.21,5.94,1.55,9.79,6.82,11.87
		c16.97,6.73,33.96,7.11,50.95-0.25c6.07-2.63,12.25-5.15,18.6-6.96c8.38-2.38,19.02,0.52,20.25,6.47
		c2.85,13.79,6.66,28.1,3.98,41.98c-3.4,17.62-11.7,33.44-23.36,47.64c-12.35,15.04-28.12,19.07-45.94,16.21
		c-11.02-1.77-21.64-6-32.43-9.14c-7.52-2.19-13.99-6.04-18.4-12.64c-2.59-3.88-5.51-5.67-10-3.5c-4.29,2.07-5.5,5.62-4.42,9.99
		c2.16,8.75,6.29,16.14,14.99,19.93c6.21,2.7,12.4,5.56,18.84,7.59c11.66,3.69,23.29,8.34,35.76,7.71
		c10.49-0.53,21.67-0.32,31.18-3.98c14.63-5.62,27.01-15.43,34.71-29.97c2.53-4.77,5.64-9.22,8.82-14.35
		c2.84,7.26,5.06,13.49,7.71,19.54c2.76,6.31,5.94,12.43,9.2,19.19c-4.4,4.03-4.04,9.25-2.17,15.06c2.13,6.6,3.37,13.49,5.29,20.17
		c3.38,11.74,5.25,24.04,11.92,34.63c7.79,12.35,17.28,22.93,32.21,26.38c12.28,2.83,24.41,0.34,36.59-1.86
		c6.02-1.08,12.73-1.36,18.57,0.17c16.65,4.35,33.42,5.88,50.37,3.88c6.08-0.72,12.35-3,17.7-6.03c8.75-4.95,11.8-14.87,7.59-21.84
		C1294.51,2414.28,1289.68,2401.79,1279.99,2392.29z M1045.74,2222.98c-7.68,2.94-15.39,5.06-25-0.18
		c9.24-4.97,17.16-9.38,25.24-13.45c1.56-0.78,3.9-0.68,5.69-0.21c5.32,1.38,10.54,3.14,16.74,5.04
		C1060.05,2217.42,1052.9,2220.23,1045.74,2222.98z M1101.66,2218.57c-6.04-2-11.65-3.87-17.72-5.88
		c5.68-5.52,11.55-11.22,17.78-17.28C1101.69,2202.96,1105.02,2210.95,1101.66,2218.57z M1246.71,2433.12
		c-11.17-1.27-22.35-2.87-33.56-3.23c-8.18-0.26-16.54,0.65-24.62,2.11c-16.43,2.97-25.6-6.92-32.68-18.78
		c-4.64-7.78-6.82-17.06-9.79-25.78c-1.37-4.05-1.83-8.39-2.97-12.53c-2.33-8.5-2.38-8.45,5.07-13.87
		c6.3-4.58,13.03-7.21,21.06-7.69c8.86-0.54,17.61-2.77,26.43-4.11c4.22-0.64,8.59-0.55,12.74-1.47c9.65-2.13,15.04,2.27,19.81,10.3
		c8.46,14.25,17.65,27.95,29.74,39.75c9.31,9.09,18.04,19.31,20.08,34.38C1267.04,2435.17,1256.9,2434.28,1246.71,2433.12z"/>
	<path class="st0" d="M1426.74,1136.38c0.73-3.86,1.34-7.94,3.09-11.38c6.13-12.06,17.2-15.78,31.02-12
		c7.18,1.96,14.76,2.8,22.21,3.19c2.2,0.11,6.27-2.85,6.46-4.72c0.28-2.74-1.77-6.03-3.58-8.55c-0.98-1.37-3.44-1.83-5.33-2.35
		c-7.26-1.99-14.85-3.12-21.8-5.87c-15.81-6.27-40.67,6.75-44.72,21.78c-5.28,19.6-9.53,39.34-8.36,59.83
		c0.36,6.24,3.36,8.29,10.11,7.48c6.28-0.75,8-2.89,7.25-9.12c-0.28-2.29-0.68-4.56-0.95-6.32c0.58-4.84,1.01-9.11,1.63-13.36
		C1424.67,1148.77,1425.57,1142.54,1426.74,1136.38z"/>
	<path class="st0" d="M1870.28,1030.95c7.74-5.66,12.79-21.65,8.77-30.91c-3.27-7.54-7.98-14.46-11.97-21.7
		c-2.4-4.35-6.66-5.12-10.29-3.55c-2.87,1.25-5.8,4.53-6.74,7.53c-1.67,5.3-1.86,11.07-2.52,15.68
		c0.07,12.08,5.88,21.24,10.27,30.76C1859.57,1032.59,1867.1,1033.28,1870.28,1030.95z"/>
	<path class="st0" d="M1780.15,1018.04c0.43,3.27,1.04,6.59,2.12,9.69c4.17,11.96,6.59,14.9,20.4,10.9
		c4.03-1.17,5.45-3.55,4.82-7.32c-1.64-9.75-3.72-19.44-5.09-29.23c-0.86-6.17-4.53-10.19-8.83-13.86
		c-5.74-4.9-13.74-2.17-15.36,5.19c-0.41,1.88-0.06,3.93-0.06,6.12C1778.78,1005.56,1779.33,1011.82,1780.15,1018.04z"/>
</g>
</svg>
