<?xml version="1.0" encoding="utf-8"?>
<!-- Generator: Adobe Illustrator 23.0.4, SVG Export Plug-In . SVG Version: 6.00 Build 0)  -->
<svg version="1.1" id="IMG_x5F_9937_xA0_Image" xmlns="http://www.w3.org/2000/svg" xmlns:xlink="http://www.w3.org/1999/xlink"
	 x="0px" y="0px" viewBox="0 0 2448 3264" style="enable-background:new 0 0 2448 3264;" xml:space="preserve">
<style type="text/css">
	.st0{fill:#FFFFFF;}
</style>
<g>
	<path class="st0" d="M1274.86,1047.37c0.73-3.86,1.34-7.94,3.09-11.38c6.13-12.06,17.2-15.78,31.02-12
		c7.18,1.96,14.76,2.8,22.21,3.19c2.2,0.11,6.27-2.85,6.46-4.72c0.28-2.74-1.77-6.03-3.58-8.55c-0.98-1.37-3.44-1.83-5.33-2.35
		c-7.26-1.99-14.85-3.12-21.8-5.87c-15.81-6.27-40.67,6.75-44.72,21.78c-5.28,19.6-9.53,39.34-8.36,59.83
		c0.36,6.24,3.36,8.29,10.11,7.48c6.28-0.75,8-2.89,7.25-9.12c-0.28-2.29-0.68-4.56-0.95-6.32c0.58-4.84,1.01-9.11,1.63-13.36
		C1272.79,1059.76,1273.69,1053.54,1274.86,1047.37z"/>
	<path class="st0" d="M2257.72,1523.19c-1.9-1.74-4.46-4.04-4.6-6.23c-1.23-18.95-1.59-37.96-3.04-56.89
		c-0.61-8.05-14.23-16.74-21.44-13.57c-12.56,5.52-18.42,1.91-22.62-10.95c-4.39-13.42-15.86-18.41-28.86-13.97
		c-5.67,1.93-11.1,5.78-15.49,9.97c-6.37,6.07-10.66,17.28-17.69,19.1c-15.76,4.07-32.65,3.87-49.11,4.9
		c-2.02,0.13-4.68-2.44-6.28-4.39c-4.14-5.05-7.03-11.46-11.94-15.47c-7.5-6.13-17.36-10.73-25.82-3.31
		c-7.81,6.84-16.81,15.5-19.05,24.86c-4.91,20.51-21.02,22.85-36.09,25.96c-17.81,3.68-36.32,3.87-54.33,6.77
		c-5.74,0.92-11.46,2.02-17.17,3.19c4.79-5.29,9.85-11.01,11.46-12.99c10.8-13.23,13.71-28.23,5.6-43.13
		c-7.35-13.52-12.65-28.71-28.15-37.12c14.47-9.91,27.5-19.67,41.34-28.1c19.83-12.06,36.01-27.23,45.88-48.47
		c7.87-16.93,14.45-34.11,14.3-53.39c-0.13-15.62-2.34-30.95-4.23-46.35c-0.88-7.21-3.16-14.36-3.2-21.55
		c-0.04-5.96-2.28-9.95-7.08-11.81c-4.78-1.85-8.81,1.49-12.33,4.64c-0.73,0.66-1.24,1.56-1.89,2.31
		c-7.37,8.49-14.39,17.33-22.24,25.35c-7.4,7.56-15,15.25-23.72,21.09c-12.91,8.65-26.44,16.64-40.49,23.24
		c-24.78,11.65-51.42,17.72-78.36,21.67c-33.17,4.86-66.72,5.5-100.19,5.98c-22.6,0.32-45.22-0.74-67.83-1.23
		c-19.57-0.42-39.16-0.66-58.71-1.46c-13.04-0.54-25.77-0.12-37.79,5.67c-2.2,1.06-4.47,1.96-6.83,2.99
		c1.56-14.61,3.82-28.31,4.23-42.07c0.31-10.36,4.23-18.53,10.4-26.09c3.57-4.37,7.19-8.88,11.52-12.44
		c17.64-14.54,23.7-34.94,27.73-55.9c2.71-14.13,8.86-25.46,19.55-34.65c6.76-5.81,14.22-10.99,20.13-17.56
		c9.63-10.72,22.26-10.97,34.05-13c3.25,4.3,5.76,7.61,7.96,10.52c5.13-0.71,8-2.14,8.69-6.69c0.84-5.56,0.52-10.6-3.88-14.72
		c-6.95-6.53-15.79-6.56-23.51-4.04c-11.56,3.77-23.74,6.89-33.32,15.24c-7.5,6.54-15.12,12.94-22.35,19.76
		c-5.72,5.39-10.93,11.33-17.72,18.45c-1.25-2.03-1.89-4.54-3.41-5.31c-6.1-3.1-12.67-8.37-18.72-7.95
		c-26.47,1.84-49.95,11.81-70.05,29.66c-12.9,11.46-26.14,22.59-39.87,33.02c-26.14,19.85-57.87,27.87-87.58,40.13
		c-3.31,1.37-6.85,2.19-10.26,3.33c-4.68,1.55-9.27,3.42-14.03,4.69c-10.24,2.75-20.51,5.43-30.86,7.72
		c-10.73,2.37-21.42,1.7-30.61-4.7c-8.95-6.24-17.19-13.5-25.74-20.32c-2.5-1.99-3.95-4.09-2.83-7.7c1.51-4.9-1.08-8.17-5.15-10.42
		c-2.2,0.78-4.2,1.19-5.89,2.15c-7.1,4.02-9.27,19.56-2.99,24.53c11.67,9.24,23.44,18.46,35.89,26.57
		c5.27,3.43,12.26,4.82,18.67,5.79c15.94,2.43,30.84-3.71,45.95-7.11c29.48-6.63,57.07-19,84.95-30.22
		c22.2-8.94,42.32-21.78,60.43-37.61c8.25-7.22,16.72-14.2,25.16-21.19c14.43-11.95,31.05-19.1,49.5-21.96
		c2.39-0.37,5.31-0.02,7.45,1.05c8.73,4.39,15.51,15.51,11.24,26.58c-0.95,2.45-1.84,4.94-2.53,7.48
		c-3.49,12.83-8.06,24.96-17.9,34.65c-6.12,6.01-11.75,12.63-16.83,19.54c-3.24,4.41-5.95,9.64-7.28,14.91
		c-1.6,6.35-1.28,13.17-2.16,19.73c-1.15,8.51-1.33,17.46-4.27,25.36c-8.47,22.79-22.35,41.88-42.56,55.96
		c-1.36,0.95-2.73,1.93-3.93,3.07c-12.99,12.3-38.1,36.22-52.88,49.72c-1.19-0.63-2.4-1.24-3.64-1.81
		c-40.76-18.69-82.66-29.48-127.47-16.52c-15.32,4.43-31.43,7.78-45.3,15.16c-21.38,11.36-41.19,24.73-66.64,26.55
		c-23.33,1.67-45.97-8.74-58.73-27.78c-13.94-20.8-27.98-41.89-44.77-60.31c-16.62-18.24-37.59-32.43-55.09-49.97
		c-22.05-22.1-49.83-33.6-78.68-38.46c-55.31-9.32-99.55,16.08-136.59,54.59c-15.7,16.33-28.11,35.78-42.63,53.31
		c-2.72,3.28-8.96,6.66-12.44,5.73c-9.7-2.57-18.71-7.61-28.18-11.21c-15.06-6.78-24.94,10.46-8.61,17.84
		c6.28,2.43,13.67,2,19.61,4.94c19.38,9.58,38.46,19.78,57.39,30.24c53.91,36.22,96.3,77.4,139.94,129.53
		c3.48,5.05,17.09,8.89,21.01,6.24c18.9-12.8,37.66-8.19,56.39-2.72c30.96,9.04,58.94,24.09,85.11,43.15
		c22.42,16.33,40.92,28.51,44.4,58.31c1.31,11.25-9.27,28.93-19.94,27.34c-18.11-2.71-32.59-9.91-50.43-14.15
		c-20.75-4.94-45.49-13.9-66.31-14.56c-25.27-0.8-50.45,6.45-75.88,9.29c-6.51,0.73-13.52,0.97-19.76-0.65
		c-9.44-2.46-18.19-7.55-27.61-10.1c-28.11-7.61-52.11-17.78-80.76-22.2c-23.59-3.64-48.08-2.41-72.17-2.33
		c-11.61,0.04-23.21,6.14-34.8,7.14c-4.68,0.4-9.19,2.01-14.01,4.27c-12.03,11.49-4.94,19.03,5.31,17.92
		c0.33,0.9,9.15-1.07,13.98-2.05c8.61-1.75,17.16-3.75,25.74-5.64c-0.15,4.23-0.99,8.58-0.33,12.68
		c3.22,19.87,5.7,39.97,10.59,59.45c7.37,29.38,16.48,58.33,24.93,87.44c10.68,36.8,25.81,71.79,47.9,103.03
		c7.56,10.69,19.67,19.54,31.59,25.41c14.68,7.24,31.03,12.06,47.19,15.02c16.28,2.98,34.08,6.18,49.69,2.62
		c36.34-8.29,73.37-16.87,105.24-37.41c20.18-13,38.06-29.54,57.24-44.14c4.75-3.62,10.29-6.67,15.95-8.41
		c2.23-0.69,7.45,2.24,8.47,4.7c9.48,22.9,15.44,47.84,28.23,68.63c12.1,19.68,28.64,39.25,48.01,50.98
		c9.27,5.62,21.47,7.3,33.93,7.64c12.28,15.34,32.91,40.96,38.79,50.57c16.91,27.62,21.34,57.98,19.31,88.96
		c-1.96,30.02-6.27,60.01-16.71,88.71c-6.68,18.36-12.5,37.04-18.27,55.71c-3.97,12.85-11.74,23.62-18.19,35.11
		c-8.61,15.33-17.24,30.67-26.5,45.61c-16.02,25.87-38.12,46.08-62.69,63.42c-17.88,12.61-37.27,22.67-58.12,30.05
		c-27.75,9.82-55.72,17.72-85.5,15.92c-14.84-0.9-30.04-0.85-44.38-4.21c-26.02-6.08-51.68-13.84-77.17-21.92
		c-18.47-5.86-36.45-13.29-54.04-21.54c-11.35-5.32-23.46-9.63-33.68-16.64c-18.99-13.03-39.69-23.93-55.58-41.19
		c-0.22-0.24-0.55-0.37-0.81-0.58c-2.25-1.81-4.51-3.61-6.77-5.41c4.01-3.92,8.13-7.7,12.33-11.3
		c16.21-13.88,33.72-26.28,49.93-40.23c13.3-11.44,23.94-24.69,36.24-37.21c4.35-4.43,28.79-28,8.84-31.77
		c-8.64-1.63-37.49,34.02-43.79,40.57c-15.97,16.61-35.11,30-53.19,44.16c-9.42,7.38-17.35,15.54-25.28,23.79
		c-4.99,4.52-8.97,9.51-13.87,14.12c-1.6,1.55-3.22,3.09-4.89,4.61c-9.38,8.55-15.61,20.91-22.56,31.8
		c-11.01,17.25-22.64,35.8-33.84,53.01c-16.5,25.36-28.39,43.5-53.01,77.42c-4.23,3.06-11.58,10.95-16.84,12.16
		c-9.45,2.19-26.07-7.99-34.22-12.18c-7.63-3.93-13.8-9.64-21.26-13.82c-5.2-2.91-16.24-12.48-21.76-15.87
		c-13.34-8.2,19.29-52.01,30.31-61.45c12.96-11.11,24.15-31.81,37.5-49.26c9.14-11.94,18.56-24.38,28.57-35.57
		c8.19-9.17,11.63-15.55,12.01-29.16c0.33-11.56,2.11-23.25-0.38-34.38c-3.22-14.41-4.49-29.34-5.31-44.06
		c-0.45-7.99-0.45-15.86,0.02-23.63c1.73-9.18,3.91-25.82,4.82-31.59c2.33-9.22,5.48-18.31,9.6-27.3
		c9.66-21.09,22.89-37.43,35.23-56.58c32.04-31.93,74.06-44.79,118.79-51.09c26.97-3.8,51.1-1.24,77.52,3.61
		c9.54,1.76,35.93,9.04,36.48-4.81c0.7-17.76-85.32-18.39-96.75-18.33c-38.66,0.2-76.32,9.22-109.45,28.27
		c-33.5,19.26-60.33,51.33-77.42,85.85c-2.44,4.92-4.57,9.92-6.45,14.97c-6.16-13.22-12.02-26.6-18.03-39.89
		c-4.93-10.9-10.01-21.79-13.95-33.06c-5.11-14.64-9.59-29.54-13.56-44.53c-5.5-20.76-11.28-41.53-15.09-62.63
		c-4.66-25.79-5.71-52-3.82-78.23c0.38-5.27,0.61-10.56,1.15-15.81c1.45-14.1,3.01-28.19,4.55-42.28
		c1.54-14.15,2.66-28.37,4.78-42.43c1.92-12.76,4.88-25.37,7.48-38.03c1.33-6.47,2.68-12.95,4.41-19.33
		c3.8-14.03,7.74-28.03,11.83-41.97c5.31-18.08,7.42-36.92,13.67-54.81c5.89-16.85,10.73-34.07,16.2-51.08
		c5.47-17.01,11.71-33.79,16.55-50.97c4.39-15.59,6.99-31.66,11.01-47.37c3.86-15.11,7.78-30.28,12.99-44.95
		c10.93-30.76,27.1-58.95,45.71-85.61c9.71-13.91,22.34-25.42,35.85-35.74c13.16-10.04,26.87-19.38,39.74-29.78
		c9.26-7.48,18.35-15.49,26.06-24.51c15.1-17.65,29.26-36.11,43.66-54.36c4.69-5.95,9.27-12.04,13.25-18.47
		c7.27-11.72,13.63-24.02,21.16-35.55c9.42-14.41,20.18-27.94,29.38-42.48c11.89-18.79,23.64-37.64,36.66-55.7
		c3.22-4.46,5.65-9.98,6.76-15.36c2.33-11.28,3.64-22.78,5.18-34.22c0.84-6.24,0.56-12.71,2.04-18.77
		c3.8-15.59,7.96-31.11,12.62-46.46c6.17-20.36,14.3-39.92,24.73-58.57c10-17.89,23.84-30.61,43.7-36.54
		c19.98-5.96,40.29-11.08,58.52-21.78c1.3-0.76,3.15-0.58,4.58-0.82c0.53,0.98,1.09,1.53,1.09,2.08
		c-0.09,27.33,4.78,54.12,8.87,80.99c0.36,2.33,1.57,5.49,3.37,6.48c5.63,3.1,12.1,0.09,14.28-6.17c0.98-2.81,1.42-5.81,2.17-8.7
		c2.66-10.23,4.74-20.66,8.16-30.62c4.12-11.98,10.15-22.95,20.53-31.07c13.05-10.21,25.34-21.44,38.78-31.1
		c15.84-11.39,32.07-22.42,48.99-32.1c28.43-16.26,54.91-35.09,78.72-57.42c18.86-17.69,41.63-23.64,66.21-25.38
		c5.54-0.39,11.26,0.47,16.79,1.39c15.68,2.6,31.27,5.53,47.27,2.28c3.18-0.65,6.68,0.24,10.03,0.42
		c-13.4,7.87-23.41,18.49-33.09,29.45c-5.72,6.47-12.57,12.39-16.6,19.81c-10.87,20.05-20.7,40.67-30.54,61.26
		c-6.5,13.6-13.16,27.06-25.99,35.82c-7.04,4.81-14.67,8.84-22.35,12.6c-11.62,5.68-23.44,10.96-35.34,16.05
		c-2.49,1.07-5.82,1.26-8.47,0.63c-6.41-1.52-12.75-3.49-18.92-5.79c-17.43-6.5-35.41-8.08-53.79-6.67
		c-8.7,0.67-11.38,2.49-14.14,10.73c2.9,0.6,5.71,1.84,8.41,1.62c19.88-1.62,38.93,1.42,57.82,7.83
		c17.08,5.79,33.86,12.31,48.77,22.26c9.73,6.49,19.37,12.9,30.13,17.3c12.39,5.06,25.28,7.77,38.76,4.63
		c8.38-1.95,16.69-4.42,25.19-5.6c30.18-4.2,56.71-18.35,83.53-31.13c16.66-7.94,31.52-19.59,47.55-28.96
		c11.01-6.43,22.63-11.81,33.97-17.66c-3.03,10.47-7.87,19.5-11.31,29.03c-4.61,12.81-12.71,25.13-7.91,39.87
		c-2.3,17.44,6.86,32.01,12.6,47.2c4.74,12.55,11.98,24.2,18.54,36.01c7.58,13.63,14.58,27.77,23.74,40.29
		c11.8,16.15,27.52,28.57,44.91,38.59c13.45,7.75,28.83,9.49,43.66,11.47c27.05,3.61,52.17-3.2,74.12-19.72
		c8.82-6.64,16.39-14.71,18.92-26.1c2.94-13.25,5.97-26.49,8.48-39.83c1.22-6.49,2.4-13.28,1.79-19.76
		c-1.44-15.17-3.47-30.33-6.24-45.31c-1.79-9.71-4.9-19.24-8.11-28.61c-4.93-14.36-9.39-29.02-16-42.61
		c-7.79-16-16.99-31.35-28.14-45.48c-8.5-10.77-17.99-19.2-32.04-21.56c-5.53-0.93-10.85-3.07-16.32-4.4
		c-3.49-0.84-7.09-1.68-10.64-1.69c-19.48-0.06-38.56,3.66-55.54,12.77c-14.35,7.7-29.46,13.08-44.45,18.78
		c-24.99,9.5-48.41,21.89-71.04,35.86c-17.46,10.78-33.78,23.28-53.34,30.65c-16.39,6.18-31.97,14.47-49.77,16.38
		c-3.92,0.42-7.89,1.41-11.58,2.8c-19.87,7.51-38.93,6.24-57.23-4.7c-8.63-5.16-17.23-10.36-26.44-15.9
		c12.41-6.08,23.41-11.4,34.34-16.84c19.13-9.52,33.16-24.23,42.6-43.2c8.4-16.88,16.92-33.77,24.11-51.18
		c6.53-15.83,17.66-28.15,28.58-40.49c14.64-16.54,34.58-25.41,54.79-33.22c6.44-2.49,13.32-3.84,19.98-5.8
		c6.28-1.85,10.84-5.27,14.22-11.4c2.73-4.95,1.31-8.6-1.26-11.7c-2.86-3.44-6.87-4.29-11.61-1.62
		c-14.77,8.31-30.39,12.64-47.71,10.3c-9.5-1.29-19.46-2.36-28.79-0.85c-12.16,1.97-24.03,0.52-35.67-1.02
		c-19.66-2.6-38.8-2.66-57.88,2.97c-2.65,0.78-5.52,0.86-9.63,1.46c2.42-8.41,4.42-15.29,6.37-22.19
		c2.87-10.17,6.27-20.24,8.4-30.57c2.66-12.92,4.29-26.05,6.31-39.1c0.86-5.57,1.64-11.16,2.37-16.76
		c2.44-18.68,4.83-37.37,7.26-56.05c0.56-4.3-0.07-8.14-4.43-10.13c-4.72-2.14-9-1.27-12.81,2.37c-4.57,4.37-9.43,8.43-13.9,12.89
		c-18.76,18.69-41.32,30.48-66.73,37.29c-18.84,5.05-38.41,7.06-56.77,14.18c-16.49,6.39-33.16,13.04-44.5,26.94
		c-12.98,15.92-24.24,33.26-35.97,50.17c-4.88,7.05-9.9,14.21-13.35,21.99c-6.71,15.12-13.79,30.33-18.07,46.22
		c-4.63,17.18-6.81,35.11-8.94,52.84c-1.22,10.16-0.22,20.58-0.22,31.02c-5.5,2.8-10.11,5.33-14.86,7.52
		c-9.61,4.42-19,9.61-29.02,12.74c-17.02,5.31-34.05,9.54-49.81,19c-11.65,6.99-19.92,16.14-26.82,26.8
		c-11.2,17.32-20.07,35.96-26.19,55.71c-5.69,18.35-11.66,36.7-15.76,55.44c-3.32,15.15-3.94,30.89-5.99,46.33
		c-1.3,9.79-4,19.1-11.84,27.35c-1-3.08-1.8-5.18-2.36-7.34c-2.51-9.57-4.71-19.22-7.46-28.71c-6.13-21.2-14-41.69-29.97-57.65
		c-11.74-11.73-23.22-24.22-36.8-33.45c-16.73-11.38-36.4-17.36-56.4-21.33c-3.77-0.75-7.47-2.1-11.26-2.36
		c-10.24-0.71-20.54-0.7-30.77-1.5c-20.78-1.63-41.5-4.51-62.3-5.18c-21.29-0.68-42.47-1.49-63.62-4.26
		c-19.44-2.54-38.7-5.86-57.66-10.78c-19.19-4.97-38.11-11.33-57.54-14.98c-23.12-4.34-44.54-12.69-65.67-22.39
		c-5.38-2.47-11.02-4.4-16.59-6.44c-18.98-6.94-38.09-13.52-56.93-20.81c-17.34-6.71-34.44-14.03-51.53-21.36
		c-5.77-2.47-11.56-5.25-16.66-8.85c-13.55-9.54-28.84-16.69-40.36-29.07c-1.04-1.12-2.8-1.72-4.34-2.22
		c-5.82-1.91-10.69,0.75-12.04,6.61c-0.51,2.24-0.61,4.57-0.87,6.87c-0.4,3.52-0.73,7.05-1.16,10.57c-0.6,4.92-1.37,9.81-1.84,14.74
		c-0.31,3.3,0.11,6.69-0.38,9.95c-3.87,25.48-4.88,50.4,5.04,75.32c7.23,18.17,16.69,34.75,29.25,49.2
		c11.94,13.73,25.49,26.21,39.26,38.16c11.96,10.38,23.94,21.11,38.72,27.69c13.3,5.91,26.41,12.38,40.06,17.32
		c13.95,5.05,28.51,8.06,42.44,13.72c35.31,14.35,70.26,29.48,105.09,44.93c11.58,5.13,22.94,10.7,30.97,21.11
		c0.8,1.04,1.77,2.33,2.92,2.67c9.57,2.84,14.6,11.32,21.41,17.43c9.85,8.83,14.79,21.2,19.04,33.28
		c2.56,7.29,1.98,15.71,2.61,23.64c0.53,6.66,3.07,9.58,8.82,9.54c5.88-0.04,9.1-2.97,9.12-9.25c0.09-22.69-7.42-42.95-20.85-60.95
		c-9.41-12.61-22.53-21.35-34.35-31.48c-12.3-10.53-26.27-18.01-40.8-24.45c-27.91-12.36-56.08-24.14-84.21-36.03
		c-12.82-5.42-25.38-12.31-38.78-15.32c-19.79-4.44-37.22-13.88-55.11-22.26c-10.02-4.69-19.09-11.97-27.56-19.28
		C304.16,943.74,289.65,931,276.55,917c-12.95-13.84-22.01-30.53-27.92-48.75c-5.48-16.9-7.41-34.02-4.62-51.69
		c1.29-8.18,1.5-16.52,2.43-24.76c0.39-3.44,1.37-6.81,2.15-10.54c1.96,0.74,2.97,0.92,3.74,1.45
		c23.2,16.27,48.17,29.07,74.93,38.41c5.32,1.86,10.64,3.75,15.82,5.94c7.88,3.34,15.48,7.35,23.47,10.37
		c20.76,7.86,41.71,15.19,62.47,23.04c8.03,3.04,15.52,7.63,23.67,10.2c12.61,3.99,25.54,7,38.41,10.16
		c12.58,3.09,25.59,4.81,37.79,8.96c26.23,8.93,53.46,12.74,80.55,17.17c24.1,3.95,48.61,2.86,72.93,4.36
		c11.26,0.69,22.54,1.27,33.77,2.3c16.17,1.48,32.3,3.5,48.47,4.98c16.96,1.55,32.97,6.21,48.39,13.32
		c18.31,8.44,31.94,22.63,45.25,37c9.98,10.77,16.84,23.74,21.5,37.72c6.46,19.42,12.78,38.88,19.54,59.47
		c-0.99,1.84-2.5,5.18-4.47,8.23c-14.69,22.73-29.56,45.34-44.18,68.12c-5.87,9.16-10.97,18.82-16.92,27.91
		c-6.36,9.71-12.9,19.36-20.11,28.45c-10.08,12.7-21.46,24.41-31.14,37.38c-8.71,11.67-16.83,23.45-29.11,31.99
		c-12.21,8.49-22.9,19.25-35.42,27.18c-24.8,15.69-43.54,36.85-58.82,61.32c-9.26,14.84-17.44,30.36-26.27,45.87
		c-3.11-1.01-6.43-2.71-9.89-3.07c-9.57-1.02-19.21-1.35-28.8-2.19c-14.54-1.27-29.06-2.73-43.59-4.15
		c-6.94-0.68-13.92-2.37-20.79-2.01c-14.72,0.76-28.12-3.83-41.75-8.16c-8.64-2.75-15.55-7.85-20.9-14.75
		c-7.91-10.21-15.66-20.56-21.59-32.19c-3.8-7.45-2.87-13.57,1.22-19.16c15.47,4.63,29.93,9.6,44.72,13.22
		c15,3.68,30.33,6.03,46.59,9.17c-0.4,0.26,0.44-0.29,1.27-0.84c3.17-2.11,5.69-4.35,4.9-8.89c-0.79-4.52-3.98-5.91-7.59-6.77
		c-5.77-1.39-11.6-2.49-17.42-3.64c-5.84-1.15-11.76-1.93-17.53-3.35c-24.85-6.12-48.75-15.1-72.26-25.05
		c-21.1-8.92-36.17-23.5-39.64-47.12c-3.28-22.36-3-44.82,0.71-67.16c0.36-2.18,1.52-4.23,2.26-6.24
		c10.09,5.56,19.89,11.01,29.74,16.37c4.63,2.52,9.39,4.82,14.02,7.35c6.94,3.79,13.44,8.85,20.81,11.31
		c16.92,5.64,34.11,10.62,51.47,14.67c7.26,1.7,15.43,5.16,22.82-0.42c0.87-9.72-0.56-11.05-9.14-12.93
		c-12.57-2.76-25.07-5.94-37.41-9.59c-14.92-4.42-29.83-9.08-42.59-18.58c-3.73-2.78-7.27-6.52-11.5-7.82
		c-19.38-5.95-33.74-19.7-48.98-31.65c-17.43-13.67-31.89-30.26-42.62-50.24c-9.11-16.95-12.42-34.94-12.49-53.36
		c-0.04-11.31,4.12-22.62,6.29-33.96c0.59-3.09,0.76-6.27,1.09-9.12c-4.27-1.69-7.53-2.97-11.4-4.5
		c-9.39,17.88-20.08,35.2-15.2,56.98c1.44,6.45,2.11,13.08,2.93,19.65c2.19,17.62,10.15,33,20.57,46.65
		c12.21,15.99,25.56,31.24,41.85,43.5c1.49,1.12,2.46,2.92,2.79,3.32c-2.59,8.09-5.32,14.85-6.8,21.87
		c-1.06,5.03-0.71,10.43-0.54,15.65c0.56,17.53,0.7,35.11,2.31,52.55c0.68,7.33,3.32,15.24,7.39,21.34
		c11.12,16.71,25.56,30.1,44.62,37.72c1.75,0.7,3.44,1.53,5.19,2.31c-0.82,2.1-1.18,3.77-2.05,5.12c-4.72,7.3-3.05,14.43-0.08,21.84
		c3.09,7.69,5.43,15.62,11.05,22.12c4.75,5.5,8.98,11.46,13.32,17.3c9.04,12.17,21.51,18.82,35.52,23.88
		c20.14,7.28,41.2,8.31,62.07,10.48c21.74,2.25,43.6,3.41,65.4,5.23c10.94,0.91,13.35,5.72,9.29,16.11
		c-3.73,9.56-7.48,19.22-9.95,29.14c-4.79,19.19-11.26,38-13.8,57.74c-0.46,3.6-1.58,7.15-2.73,10.61
		c-1.76,5.3-4.06,10.44-5.71,15.77c-4.1,13.24-7.7,26.63-11.99,39.81c-7.89,24.22-17.82,47.81-22.31,73.08
		c-1.73,9.75-3.48,19.54-6.06,29.08c-3.11,11.48-7.22,22.7-10.68,34.09c-1.33,4.38-2.08,8.94-3.08,13.42
		c-2.06,9.28-4.25,18.53-6.13,27.84c-2.22,11.01-5.03,22.01-5.99,33.15c-0.9,10.44-3.39,20.65-2.69,31.42
		c0.61,9.42-2.19,19.02-2.88,28.59c-1.22,16.77-1.14,33.67-3.2,50.33c-1.9,15.43-0.38,30.58,1.35,45.66
		c3.13,27.29,9.37,54.03,17.31,80.35c4.38,14.52,7.65,29.39,14.99,42.95c3.21,5.93,5.06,12.59,7.61,19.15
		c-10.34-7.56-21.13-13.07-34.73-11.53c-6.13,0.7-12.62-0.35-18.75-1.57c-3.25-0.64-7.29-2.61-8.9-5.24
		c-7.13-11.69-19.08-17.28-29.79-24.16c-9.92-6.37-20.95-11-32.23-16.78c0.11-1.22-0.15-3.65,0.58-5.74
		c2.78-7.96,2.33-15.57-1.15-23.23c-0.89-1.96-0.54-4.46-0.86-6.7c-2.03-14.36-8.28-26.36-19.48-35.84
		c-13.25-11.21-29.55-15.86-45.36-21.57c-3.84-1.38-7.67-0.41-9.34,3.49c-1.58,3.69-1.93,7.84,2.39,10.48
		c1.96,1.2,3.93,2.5,6.07,3.28c6.16,2.25,12.89,3.39,18.51,6.56c9.94,5.59,21.01,10.16,25.9,21.99c4.65,11.22,6.29,22.95,6.29,34.93
		c0,2.61-1.87,5.23-2.76,7.54c-2.14-0.03-3.14,0.05-4.11-0.08c-1.31-0.18-2.63-0.46-3.9-0.83c-12.44-3.61-23.46-0.18-33.25,7.4
		c-6.87,5.32-7.51,13.82-2.48,21.19c7.85,11.49,21.78,15.37,35.01,8.93c6.19-3.01,12.03-7.03,17.33-11.44
		c3.31-2.75,6.41-3.74,9.96-2.21c8.78,3.8,17.62,7.59,25.98,12.2c4.88,2.69,8.59,7.47,13.4,10.32c4.06,2.41,6.5,5.31,7.33,9.58
		c-3.73,2.94-7.63,5.53-10.92,8.73c-3.31,3.23-6.2,6.95-8.95,10.69c-3.31,4.5-4.41,9.74-2.45,15c6.41,17.15,27.87,21.17,38.7,6.78
		c3.52-4.68,4.39-11.52,5.87-17.52c0.82-3.33,0.4-6.97,0.53-10.28c20.27-2.25,62.06,11.43,68.68,23.74
		c4.05,8.56,3.09,6.65,6.52,14.87c4.85,11.62,9.82,23.17,15.08,34.58c-6.19,31.21-4.47,63.91-0.26,95.52
		c2.04,15.38,3.79,32.89-4.34,47.4c-6.74,12.04-18.37,24.86-27.38,35.66c-23.95,28.73-49.4,60.4-67.46,93.1
		c-7.68,13.91-10.88,29.48-17.82,43.63c-6.48,13.23-14.74,25.21-21.59,38.1c-8.9,16.77-14.77,32.98-20.97,50.96
		c-3.26,9.48-17.09,39.88-10.29,49.23c6.73,9.26,28.29,9.73,40.4,6.22c11.12-3.23,23.67-6.59,35.66-7.89
		c17.5-1.9,35.06-6.74,54.03-16.99c12.64-6.83,35.7-51.84,40.96-60.3c5.01-8.06,7.9-15.04,14.76-22.38
		c9.33-9.99,17.27-19.98,25.2-31.3c20.21-28.82,43.14-58.76,60.95-90.23c9.56-16.89,21.08-33,33.99-47.61
		c9.98,8.74,19.65,17.88,30.13,25.98c9.9,7.65,20.81,14.01,31.37,20.77c7.24,4.64,14.33,9.69,22.07,13.32
		c12.2,5.73,24.85,10.53,37.39,15.54c11.35,4.54,22.69,9.16,34.24,13.15c13.95,4.82,28.07,9.14,42.19,13.42
		c10.43,3.16,20.91,6.18,31.49,8.78c19.71,4.86,39.87,5.98,60.02,5.32c12.86-0.42,25.79-1.83,38.45-4.13
		c11.02-2,21.61-6.24,32.54-8.85c24.54-5.86,46.66-17.16,67.98-30.09c21.14-12.82,39.96-28.69,56.71-46.8
		c8.07-8.72,15.41-18.25,22.07-28.1c6.44-9.52,11.49-19.97,17.32-29.91c4.2-7.15,8.95-13.98,12.96-21.22
		c5.11-9.24,10.38-18.48,14.36-28.21c5.12-12.51,9.16-25.47,13.44-38.31c6.67-20.02,13.72-39.93,17.7-60.74
		c0.38-2,1.03-3.95,2.22-8.44c4.98,8.55,8.93,14.87,12.4,21.43c4.19,7.91,7.45,16.34,12.03,24c9.45,15.8,14.23,31.05,4.86,49.33
		c-8.37,16.32-13.59,34.24-20.72,51.23c-8.96,21.36-22.38,40.09-38.41,56.45c-11.56,11.8-21.03,24.8-28.82,38.99
		c-12.21,22.24-29.29,39.46-49.34,54.72c-14.03,10.68-15.51,10.42-11.66,29.16c1.2,5.84,2.03,11.79,3.77,17.47
		c4.14,13.52,7.59,26.95,17.15,38.61c12.08,14.75,19.88,32.06,18.8,52.16c-0.46,8.52-0.08,17.09-0.08,26.75
		c-8.18,6.96-18.29,10.81-28.89,10.71c-15.89-0.15-31.36,3.93-47.46,2.44c-16.38-1.52-20.6-3.34-25.44-19.34
		c-3.15-10.43-5.02-21.41-9.45-31.25c-11.27-24.99-17.06-50.75-16.26-78.23c0.42-14.22-4.6-27.33-12.56-39.06
		c-2.52-3.72-6.8-5.04-11.44-3.74c-8.45,2.38-10.8,8.97-5.74,17.12c5.12,8.25,9.44,16.6,9.77,26.68c0.33,9.95,1.91,19.87,1.99,29.81
		c0.1,13.63,4.74,26.02,9,38.58c5.42,15.99,11.24,31.85,16.2,47.97c2.25,7.32,3.54,14.59,9.65,20.24c2.25,2.08,2.75,6.52,3.19,9.99
		c0.83,6.57,0.56,13.3,1.6,19.82c3.99,24.81,12.25,47.4,34.02,62.61c11.61,8.11,23.91,14.89,38.33,15.32
		c9.11,0.27,18.73,0.84,26.76-5.25c7.08-5.36,13.94-11.02,21.15-16.2c10-7.18,14.25-17.72,15.24-29.01
		c1.33-15.18,1.02-30.43-2.11-45.64c-3.11-15.14-4.92-30.56-6.87-45.92c-0.82-6.48,0-13.16-0.84-19.63
		c-2.22-17.19-6.6-33.81-15.59-48.86c-2.89-4.83-6.35-9.32-9.47-14.02c-7.92-11.93-9.99-25.67-13.27-39.27
		c-2.26-9.39,0.53-14.07,7.25-19.21c8.14-6.22,15.93-13,23.32-20.11c12.02-11.57,20.84-25.58,28.8-40.14
		c9.66-17.69,24.7-31.18,36.58-47.12c12.11-16.25,23.78-32.77,31.27-51.81c6.78-17.25,13.29-34.62,20.47-51.7
		c8.83-21.01,4.2-40.13-6.93-58.65c-2.88-4.79-6.16-9.49-8.12-14.66c-5.97-15.78-15.63-29.22-26.17-42.04
		c-3.05-3.71-4.42-7.16-3.98-11.68c1.61-16.76,1.97-33.55,0.62-50.34c-1.01-12.54-1.15-25.15-7.02-36.9
		c-4.1-8.2-6.64-17.19-10.73-25.4c-3.54-7.11-8.02-13.79-12.55-20.34c-2-2.89-11.65-14.78-20.05-24.93
		c31.45-1.65,59.6-15.45,86.09-31.64c15.93-9.73,30.54-21.74,45.15-33.46c12.99-10.42,25.86-21.18,37.46-33.08
		c11.02-11.3,20.78-23.93,30.3-36.58c9.68-12.88,19.35-25.89,27.72-39.62c13.18,0.7,31.87,2,37.94,2.42
		c7.52,0.52,15.08,0.89,22.53,1.93c22.5,3.14,44.96,3.31,67.37-0.54c19.11-3.28,34.6-13.47,49.32-24.81
		c1.11-0.86,2.21-1.72,3.32-2.59c6.23,8.33,12.45,16.67,18.66,25.01c12.78,17.14,35.57,26.76,56.27,20.61
		c18.39-5.47,37.28-11.03,53.92-20.23c36.73-20.31,72.18-42.94,108.17-64.61c9.82-5.91,19.05-14.13,29.7-16.93
		c8.53-2.24,11.54-5.47,13.94-12.88c1-3.11,5.45-6.39,8.91-7.23c20.34-4.93,41.98-6.4,61.06-14.2
		c36.85-15.07,65.04-41.79,85.95-75.78c3.28-5.33,5.17-10.9,12.71-4.9c1.18,0.94,4.74-0.73,7.01-1.66c4.35-1.79,8.4-5.13,12.84-5.68
		c19.59-2.42,39.28-4.08,55.62-5.69c11.23-4.08,18.68-7.93,26.58-9.43c19.86-3.76,24.32-19.08,28.76-35.15
		c1.1-3.99,4.8-7.2,6.74-11.05c1.83-3.64,3.5-7.59,3.96-11.55C2264.21,1526.35,2259.66,1524.97,2257.72,1523.19z M1586.96,840.02
		c3.68-10.16,13.1-12.16,20.98-16.29c6.1-3.2,13.02-4.87,19.06-8.17c13.92-7.59,29.34-9.53,44.42-12.81c0.32-0.07,0.67-0.09,1-0.05
		c21.69,2.23,42,5.91,56.1,26.13c13.79,19.79,25.08,40.63,33.4,63.04c10.21,27.5,16.28,55.91,18.2,85.36
		c0.81,12.35-4.27,23.08-5.41,34.74c-0.45,4.57-1.72,9.09-2.93,13.55c-4.73,17.46-18.6,26.13-33.38,33.32
		c-10.22,4.97-21.34,7.39-33.14,7.07c-11.07-1.81-22.19-3.37-33.2-5.48c-12.77-2.44-23.12-9.91-33.12-17.58
		c-10.83-8.29-19.01-18.76-26.66-30.29c-12.52-18.85-22.69-38.83-32.34-59.08c-5.8-12.17-9.61-25.35-13.73-38.26
		c-2.68-8.39-2.28-16.83,1.24-25.3C1574.31,873.45,1580.87,856.81,1586.96,840.02z M1109.53,759.59
		c3.12-27.7,11.97-53.38,23.05-78.42c4.64-10.48,11.65-19.97,18.06-29.6c8.08-12.14,16.43-24.12,25.12-35.83
		c3.71-5,7.92-10.14,13.03-13.48c15.3-10.01,31.46-18.25,49.71-22.02c16.47-3.4,32.93-6.68,49-12.16
		c19.2-6.54,36.24-16.1,51.42-29.34c2.41-2.1,5.23-3.71,9.25-6.52c-1.97,11.82-3.74,21.85-5.3,31.91
		c-1.57,10.13-3.3,20.26-4.31,30.45c-1.51,15.21-4.86,29.96-9.25,44.55c-2.58,8.55-4.7,17.24-7.27,25.79
		c-4.14,13.79-10.86,25.87-20.35,37.11c-8.14,9.64-17.96,16.24-27.94,23.19c-7.61,5.3-14.63,11.45-22.23,16.76
		c-5.95,4.16-12.43,7.55-18.61,11.38c-4.77,2.96-9.48,6.05-14.17,9.15c-14.05,9.28-28.41,18.12-42.03,28
		c-17.1,12.4-34.9,24-49.25,39.9c-7.63,8.46-13.38,17.91-17.69,28.59C1105.2,825.62,1105.8,792.71,1109.53,759.59z M386.91,2047.24
		c5.63-1.5,9.93-2.64,14.23-3.78C394.11,2051.63,394.11,2051.63,386.91,2047.24z M476.71,2117.87c-3.52-7.93-2.79-9.46,5.72-12.67
		C482.63,2110.42,481.17,2114.63,476.71,2117.87z M561,2556.07c-6.74,10.98-13.76,21.68-22.22,31.4
		c-19.39,8.46-36.52,14.15-57.17,18.67c-9.13,2-35.84,9.71-40.82,2.19c-6.91-10.42,10.55-37.2,15.12-47.17
		c5.87-12.79,12.66-25.74,19.38-38.18c3.33-6.17,8.28-17.78,14.62-21.35c7.43-4.18,12.2,1.84,18.87,7.49
		c11.25,9.55,20.34,9.53,33.12,17.37C558.85,2536.92,573.43,2535.83,561,2556.07z M1236.89,2648.21c5.16,14.69,5.52,29.53,5.9,44.35
		c0.09,3.65,0.12,7.35-0.42,10.94c-0.57,3.87-0.78,8.46-2.99,11.3c-9.37,12.04-20.69,22.59-37.03,21.58
		c-17.06-1.06-31.81-8.92-41.9-23.09c-5.34-7.49-9.94-15.98-12.7-24.71c-2.83-8.96-3.01-18.76-4.54-29.56
		C1175.38,2658.84,1206.69,2658.88,1236.89,2648.21z M2173.4,1442.86c4.87-1.71,10.09-2.83,15.22-3.03c1.1-0.04,2.39,4.74,3.6,7.3
		c-2.39,0.74-4.76,1.94-7.19,2.11c-2.95,0.21-5.97-0.45-8.96-0.74c-0.07,0.46-0.13,0.93-0.2,1.39c-2.1-0.39-4.2-0.78-6.3-1.16
		C2170.82,1446.69,2171.65,1443.47,2173.4,1442.86z M2059.78,1449.02c2.3-0.63,6.15,4.34,9.3,6.8c-2.91,1.94-5.81,3.87-9,6
		c-3.84-1.55-6.71-2.7-9.57-3.85C2053.56,1454.79,2056.15,1450.02,2059.78,1449.02z M2015.54,1497.83
		c19-8.69,38.34-16.63,52.41-22.6c22.38-2.2,38.4-4.87,54.46-5.06c16.77-0.2,33.56,2.19,50.37,3.04c7.19,0.36,14.46-0.85,21.64-0.38
		c9.48,0.63,19.05,1.54,28.24,3.76c3.21,0.78,5.38,5.82,8.03,8.91c-2.55,1.58-4.94,4.17-7.67,4.58
		c-29.07,4.41-58.19,8.49-87.3,12.62c-14.94,2.12-29.86,4.38-44.83,6.15c-5.59,0.66-13.88,4.95-12-7.96
		c0.41-2.81-6.28-7.4-10.48-9.8c-1.8-1.03-6.64,0.57-8.34,2.52c-12.04,13.83-23.58,28.1-35.43,42.1c-1.42,1.67-3.71,2.6-5.6,3.87
		c-0.82-2.08-1.89-4.11-2.4-6.26c-2.07-8.7-4.51-17.38-5.62-26.21C2010.64,1504.15,2013.03,1498.98,2015.54,1497.83z
		 M2003.28,1538.81c-3.53,2.77-7.06,5.54-10.58,8.31c-0.48-0.63-0.96-1.26-1.45-1.9c-20.25,2.99-40.45,6.37-60.77,8.8
		c-9.73,1.16-19.75,1.33-29.47,0.27c-3.22-0.35-5.88-5.91-8.79-9.09c2.78-2.21,5.43-6.12,8.35-6.34
		c18.25-1.36,36.57-1.66,54.85-2.78c11.73-0.72,23.4-2.86,35.11-3.04C1994.75,1532.98,1999.03,1536.78,2003.28,1538.81z
		 M1985.27,1565.53c-1.18,1-2.31,2.06-3.54,2.99c-7.34,5.53-14.11,12.29-22.24,16.18c-8.08,3.87-17.49,5.07-26.42,7.01
		c-7.79,1.7-15.8,2.41-23.54,4.25c-11.29,2.69-10.68-6.19-11.54-12.23c-0.81-5.67-4.2-14.01,7.3-14.22
		c5.88-0.11,11.74-1.07,17.62-1.65c0.08,0.91,0.16,1.83,0.24,2.74c19.2-1.89,38.39-3.8,57.59-5.62
		C1982.22,1564.83,1983.76,1565.33,1985.27,1565.53z M1936.3,1511.65c15.4-1.65,30.73-3.86,46.13-5.5c2.88-0.31,6.6,0.1,8.69,1.75
		c1.68,1.33,1.48,5.04,2.11,7.69c-2.87,0.23-5.78,0.26-8.61,0.71c-16.97,2.68-33.93,5.45-50.89,8.19c-0.06-0.53-0.12-1.05-0.18-1.58
		c-11.71,1.15-23.4,2.62-35.14,3.22c-2.61,0.13-5.37-2.78-8.07-4.3c2.22-2.24,4.23-6.13,6.7-6.45
		C1910.07,1513.66,1923.23,1513.05,1936.3,1511.65z M1492.89,1365.82c7.3-6.72,15.99-12.02,22.77-19.18
		c13.18-13.93,28.22-24.45,45.79-32.27c11.01-4.9,21.3-7.53,33.5-6.06c13.41,1.62,27.12,0.7,40.7,1.03
		c15.27,0.37,30.53,1.18,45.8,1.27c31.61,0.19,63.23,0.69,94.82-0.22c18.52-0.53,37.13-2.61,55.43-5.6
		c33.51-5.48,65.76-15.07,95.7-31.88c12.81-7.19,25.42-14.38,36.01-24.6c6.43-6.2,12.53-12.74,18.71-19.2
		c3.18-3.32,6.21-6.79,10.57-11.57c1.77,10.78,3.84,19.84,4.63,29.03c1.45,16.87,2.73,34-3.59,50.19
		c-5.29,13.57-11.06,27.18-20.16,38.68c-4.64,5.86-10.88,10.67-17.04,15.06c-14.61,10.41-29.28,20.8-44.54,30.19
		c-9.83,6.05-20.65,10.56-31.21,15.35c-19.86,9.03-39.62,18.35-59.85,26.46c-20.57,8.24-8.86,1.95-28.98,11.24
		c-8.65,3.99-18.4,25.7,2.44,17.5c16.56-6.51,33-13.54,49.45-20.46c14.65-6.16,29.29-12.35,43.93-18.56
		c4.19-1.78,8.34-3.66,12.39-5.44c7.03,8.33,14.03,15.75,19.96,23.94c4.44,6.12,7.05,13.18,7.91,21.11
		c0.93,8.56-2.33,14.65-7.73,20.52c-5.87,6.37-18.9,19.18-28.94,27.51c-5.96,1.08-11.94,2.01-17.95,2.67
		c-52.96,5.8-119.35,11.94-172.44,16.47c-2.32,0.2-5.89-2.36-7.25-4.62c-8.97-14.93-15.97-31.31-26.53-44.95
		c-15.89-20.52-18.36-22.51-36.32-41.31c-14.99-11.2-17.38,5.46-3.5,16.03c6.19,6.55,10.83,9.09,16.26,16.33
		c11.26,15.03,24.24,33.85,33.31,53.38c0.81,1.75-0.67,6.95-1.74,7.16c-15.26,2.96-17.28,4.17-32.72,5.78
		c-35.33,3.7-70.84,5.88-106.08,10.23c-10.67,1.32-15.55-2.62-17.88-10.82c-9.64-33.96-29.45-62.4-48.26-91.46
		c-6.46-9.98-13.53-19.26-22.26-26.78C1462.57,1394.18,1481.88,1375.95,1492.89,1365.82z M1789.25,1586.32
		c20.19-2.84,39.99-8.45,59.96-12.87c0.13,0.55,0.26,1.1,0.39,1.65c8.47-0.83,16.92-1.8,25.4-2.41c2.18-0.16,6.33,0.66,6.39,1.34
		c0.82,8.49,1.73,17.09,0.97,25.51c-0.19,2.12-6.04,4.85-9.57,5.37c-26.52,3.91-53.11,7.38-79.69,10.88
		c-7.15,0.94-13.28-0.36-12.82-9.44C1780.67,1598.78,1773.17,1588.58,1789.25,1586.32z M1872.61,1558.32
		c-24.35,4.97-48.95,8.74-73.24,13.98c-15.13,3.26-24.4,1.09-24.43-8.67c-0.01-3.2,3.29-8.23,6.22-9.29
		c7.67-2.77,15.96-3.82,24.05-5.57c22.06-2.17,44.07-4.7,66.14-6.08c2.98-0.19,6.33,5.47,9.5,8.42
		C1878.12,1553.6,1875.71,1557.69,1872.61,1558.32z M1870.63,1529.69c-23.77,2.89-47.62,5.1-71.41,7.75
		c-5.11,0.57-10.06,2.5-15.17,3.2c-3.5,0.48-8.54,1.31-10.34-0.53c-2.05-2.09-2.6-7.55-1.32-10.45c1.09-2.48,5.69-3.42,8.74-5.04
		c0.24,0.58,0.48,1.16,0.72,1.74c23.52-2.32,47.04-4.71,70.58-6.89c6.07-0.56,12.23-0.84,18.31-0.48c1.96,0.12,3.77,2.69,5.64,4.14
		C1874.46,1525.41,1872.77,1529.43,1870.63,1529.69z M1776.31,1633.81c34.9-4.88,69.81-9.66,104.72-14.38
		c1.88-0.25,3.85,0.15,5.78,0.25c-1.95,1.12-3.78,2.86-5.87,3.26c-24.77,4.74-49.58,9.27-74.38,13.86
		c-0.02-0.23-0.05-0.45-0.07-0.68c-10.04,0.99-20.07,2.12-30.13,2.81c-1.51,0.1-3.16-1.82-4.75-2.8
		C1773.17,1635.34,1774.67,1634.04,1776.31,1633.81z M1330.11,1668.42c2.43-10.05,4.74-20.13,7.1-30.2
		c-5-16.89-3.99-20.14,13.03-23.96c16.7-3.75,33.84-6.64,50.9-7.34c11.96-0.49,6.34,12.47,9.49,18.92c0.3,0.62-4.64,5.44-7.31,5.6
		c-17.36,1.05-34.78,1.03-52.14,2.1c-4.69,0.29-9.23,3.1-13.84,4.75c0.84,9.45,4.32,12.66,14.94,10.39
		c11.98-2.55,24.72-1.38,37.1-2.2c5.6-0.37,11.13-2.15,16.72-2.28c2.76-0.06,6.93,1.38,8.16,3.49c8.29,14.19,7.86,14.44-8.34,17.33
		c-22.5,4.02-44.92,8.54-67.42,12.58c-3.58,0.64-7.4-0.08-11.11-0.16C1328.3,1674.43,1329.37,1671.46,1330.11,1668.42z
		 M1321.93,1593.26c2.72-2.31,5.19-6.19,8.2-6.68c21.48-3.5,43.04-6.61,64.67-8.92c2.33-0.25,5.29,5.44,7.96,8.37
		c-2.06,1.86-3.86,4.85-6.21,5.39c-8.45,1.93-17.1,3.03-25.67,4.45c-0.02-0.11-0.03-0.21-0.05-0.32c-12.69,2.2-25.32,5.11-38.11,6.1
		C1329.37,1601.91,1325.55,1596.22,1321.93,1593.26z M1416.47,1581.92c-0.5-2.48,2.78-6.77,5.51-8.57c2.44-1.61,6.4-0.92,9.69-1.24
		c0.05,0.25,0.1,0.49,0.15,0.74c16.09-3.54,32.14-7.23,48.28-10.49c3.94-0.79,10.41-1.74,11.79,0.19c2.76,3.86,3.19,9.63,3.6,14.69
		c0.07,0.9-4.47,2.82-7.04,3.18c-21.34,3.02-42.69,6.05-64.13,8.27C1421.8,1588.95,1417.03,1584.71,1416.47,1581.92z
		 M1427.36,1603.24c21.96-3.4,44-6.42,66.13-8.35c3.76-0.33,8.02,5.06,13.93,9.09c-4.33,5.58-6.02,10.13-8.61,10.72
		c-19.67,4.45-39.54,7.98-59.29,12.1c-12.75,2.66-18.26-3.53-18.33-15.19C1421.17,1608.71,1424.82,1603.64,1427.36,1603.24z
		 M1434.21,1640.26c21.66-4.23,43.5-7.64,65.08-12.24c9.27-1.98,8.62,4.48,9.35,9.22c0.76,4.94,5.39,12.35-5.25,13.12
		c-4.7,0.34-9.38,0.9-17.47,1.7c-13.59,2.05-30.57,4.53-47.51,7.21c-11.99,1.9-9.23-8.7-11.99-14.44
		C1426.29,1644.57,1431.29,1640.83,1434.21,1640.26z M1502.52,1566.1c3.84-4.04,6.12-6.43,8.41-8.83
		c12.33-1.56,33.88-6.67,39.5-7.49c16.78-1.65,35.69-3.6,54.62-5.34c9.76-0.9,9.53,7.21,9.68,12.96c0.05,1.89-6.08,5.2-9.68,5.7
		c-18.34,2.54-36.74,4.96-55.2,6.1c-7.66,0.48-26.11,4.83-37.19,6.09C1509.75,1575.62,1506.96,1570.4,1502.52,1566.1z
		 M1510.8,1599.62c0.42-4.01,4.75-7.61,7.39-11.38c4.1-2.2,26.77-4.07,35.06-5.39c11.61-1.85,23.19-3.89,34.79-5.78
		c0.05,0.29,0.1,0.58,0.15,0.87c6.58-0.65,13.3-2.36,19.7-1.56c4.09,0.51,9.38,3.85,11.26,7.42c6.17,11.74-0.92,14.85-11.42,15.67
		c-12.53,0.98-25.08,2.22-37.5,4.27c-10.43,1.72-46.49,8.41-53.06,6.3C1514.87,1606.55,1510.47,1602.84,1510.8,1599.62z
		 M1525.46,1620.78c14.19-1.4,48.86-7.3,59.26-7.97c11.69-0.75,23.39-2.03,35.11-2.47c1.8-0.07,4.21,2.01,5.39,3.74
		c1.09,1.6,0.39,4.34,1.34,6.11c7.17,13.31,0.78,16.87-15.77,15.81c-4.91,0.48-14.49,1.55-22.76,1.41
		c-9.79-0.17-51.22,12.18-64.51,10.83c-2.32-2.51-6.61-5.04-6.58-7.51C1517.04,1633.18,1509.93,1622.31,1525.46,1620.78z
		 M1624.86,1555.46c-0.06-3.93,0.89-11.15,2.27-11.35c22.7-3.21,45.57-5.07,68.33-7.85c10.62-1.3,24.38-3.55,31.97-4.35
		c3.87-0.41,7.87-0.98,12.99-1.48c5.74,0.79,16.93-6.84,16.27,8.76c-0.07,1.59-1.09,4.35-2.03,4.52c-9.18,1.62-18.47,2.89-27.68,3.6
		c-8.84,0.68-30.02,5.21-38.96,6.08c-18.96,1.87-37.92,3.86-56.91,5.42C1629.01,1558.98,1624.88,1556.67,1624.86,1555.46z
		 M1628.48,1578.7c-0.42-1.41,4.51-6.14,7.38-6.55c23.58-3.36,47.32-5.61,70.91-8.97c8.41-1.2,26.32-3.63,35.38-4.92
		c11.45-0.63,20.6-5.11,21.39,8.5c0.79,13.63-11.52,11.13-16.97,10.77c-5.33-0.35-26.02,2.28-36.68,4.73
		c-8.67,2.18-17.24,5.06-26.04,6.38c-15.78,2.36-31.69,4.51-47.59,4.84C1633.62,1593.55,1630.11,1584.17,1628.48,1578.7z
		 M1642.62,1605.24c0.99,1.03,1.98,2.05,2.96,3.08c22.12-4.19,44.11-9.16,66.38-12.4c17.75-2.59,41.85-7.09,47.89-7.01
		c12.86,0.17,15.2,19.86,6.04,23.72c-7.24,2.41-21.71,4.82-35.21,6.75c-20.5,2.93-38.6,6.6-59.21,8.64
		c-7.72,0.76-15.4,1.93-23.14,2.49c-11.82,0.86-8.94-9.55-10.66-15.57C1636.93,1612.39,1640.83,1608.52,1642.62,1605.24z
		 M896.44,1433.02c0.3,7.29-1.43,12.79-0.56,20.06c-15.87-9.76-14.32-22.51-9.82-38.56c0.83-2.97,4.45-5.16,6.78-7.71
		c1.6,2.91,4.35,5.73,4.56,8.73C897.8,1421.32,896.2,1427.22,896.44,1433.02z M1146.38,1590.11
		c-36.94-35.56-81.15-58.96-129.42-74.14c-15.4-4.85-33.08-4.09-49.6-3.31c-15.65,0.74-24.14-6.47-32.61-18.14
		c-7.79-10.73-18.53-19.31-27.76-29.04c-0.84-0.88-1.86-1.96-2.95-3.11c1.62-5.55,2-16.61,2.15-18.63
		c0.98-13.73,1.11-27.6,0.37-41.35c-0.3-5.64-3.4-15.73-5.64-15.85c-8.31-0.44-17.33,1.29-24.9,4.77
		c-2.25,1.04-0.55,10.52-0.77,16.13c-0.22,5.57-0.04,11.26-1.29,16.61c-0.26,1.13-6.95,2.54-8.93,1.22
		c-19.95-13.35-39.54-27.23-59.23-40.97c-0.97-0.68-1.91-1.4-2.92-2.01c-15.05-9.2-17.23-18.26-6.87-33.12
		c19.21-27.54,42.52-51.1,71.27-68.66c46.66-28.49,94.69-28.09,138.06,3.66c32.54,23.83,64.1,50.3,87.27,84.81
		c11.78,17.55,25.59,33.73,38.32,50.64c10.2,13.54,25.21,18.41,40.59,19.53c13.54,0.99,27.85-0.37,40.97-3.87
		c14.52-3.88,25.82-9.17,39.1-16.36c29.71-16.09,60.9-30.15,94.66-27.39c38.88,3.18,77.81,12.2,103.95,45.48
		c21.8,27.75,40.56,57.43,50.96,91.98c3.47,11.51,7.02,13.71-6.52,15.42c-26.66,3.37-52.91,9.87-79.51,13.9
		c-26.81,4.06-53.83,6.75-80.77,9.94c-10.36,1.23-20.97,3.89-31.07,2.66c-6.76-0.83-12.88-7.27-19.17-11.37
		c-20.75-13.53-43.32-12.27-65.99-7.52c-26.28,5.5-48.95,17.59-66.16,38.87C1151.35,1591.67,1147.53,1591.21,1146.38,1590.11z
		 M1238.85,1818.82c-1.96-1.04-8.92-7.58-10.57-8.98c-30.55-25.97-39.23-48.5-56.01-84.1c-7.48-15.87-13.61-32.37-20.41-48.74
		c2.7-4.7,2.8-2.61,4.75-5.82c4.98-8.17,9.59-16.62,15.3-24.26c1.91-2.56,8.05-5.19,9.91-4.03c15.01,9.34,25.45,23.47,38.38,35.28
		c29.7,27.24,62.43,87.29,61.29,87.1c-14.13-2.43-30.04-16.02-44.24-17.76c-4.59-0.56-11.63-4.52-14.15,5.37
		C1224.62,1769.6,1239.25,1797.2,1238.85,1818.82z M1270.15,1705.12c-17.23-20.4-34.27-41.2-53.61-59.5
		c-12.91-12.22-29.35-20.88-44.73-30.28c-7.57-4.63-6.5-9.02-2.7-15.01c12.56-19.76,31.95-28.03,62.4-34.75
		c9.12,1.61,27.57,1.42,42.82,8.33c25.62,11.6,56.25,41.61,44.75,81.62c-6.04,21.03-18.65,35.85-32.21,50.81
		C1282.45,1711.23,1276.25,1712.35,1270.15,1705.12z M867.53,1643.07c1.31,2.57,3.73,5.12,3.78,7.7c0.55,33.4,0.88,66.8,0.99,100.2
		c0.03,10.58-1.12,20.81-1.58,31.38c-0.05,1.08-0.53,2.13-0.8,3.2c-0.38-1.02-0.9-2.01-1.1-3.07c-0.67-3.47-5.43-91.37-6.26-132.03
		C862.5,1648.04,865.79,1645.54,867.53,1643.07z M1426.48,1862.9c-29.61,29.08-53.55,45.04-84.32,68
		c-19.76,11.54-41.67,22.19-63.88,26.18c-44.47,7.98-72.01-3.53-98.4-40.73c-15.68-22.1-26.19-45.36-27.34-63.87
		c-4.96-8.3-1.59-23.87-18.34-27.08c-14.84-2.85-28.16,6.6-37.55,14.63c-11.88,10.16-20.08,18.01-32.83,26.65
		c-24.59,16.66-48.15,31.69-78.04,39.44c-24.65,6.39-48.67,14.78-74.09,10.83c-33.67-5.23-60.57-8.54-81.71-38.02
		c-19.52-27.24-33.53-57.57-42.45-90.11c-9.2-33.55-19.2-66.88-28.09-100.51c-5.66-21.41-10.37-56.39,4.25-61.35
		c1.11-2.23,6.08-4.07,8.91-3.66c22.14,3.2,44.23,6.8,66.26,10.68c10.96,1.93,11.72,11.21,12.16,19.74
		c2.35,45.42,4.61,90.85,6.48,136.29c0.33,7.91,0.57,37.98,4.81,41.78c3.42,3.06,12.39,3.07,16.91,0.68
		c3.2-1.69,4.12-9.63,4.25-14.83c0.67-27.77,0.52-55.57,1.15-83.34c0.5-21.8,1.38-43.61,2.89-65.36c0.34-4.87,3.99-9.52,6.11-14.27
		c4.78,2.2,10.46,3.41,14.17,6.79c11.28,10.29,23.43,3.73,33.22,0.13c28.92-10.64,58.76-12.47,88.28-9.21
		c18.07,2,35.24,11.93,52.88,18.09c6.62,2.31,13.36,4.38,20.19,5.96c9.15,2.11,19.93,1.34,27.22,6.09c6.32,4.12,9.47,13.9,12.8,21.7
		c13.24,31.01,26.64,61.92,48.99,87.79c14.27,16.52,29.09,32.57,43.29,49.15c3.29,3.84,4.24,9.87,7.81,13.26
		c3.05,2.9,8.47,4.92,12.54,4.49c2.27-0.24,5.96-6.52,5.55-9.63c-2.67-20.36-3.59-39.9-11.34-63.39
		c-4.32-10.97-14.63-27.93,2.73-17.24c13.49,6.75,26.63,14.21,40.16,20.87c14.97,8.68,20.29,3.03,15.38-10.87
		c-5.64-14.13-13.32-27.44-18.76-41.63c-1.69-4.41,0.76-10.79,2.39-15.92c0.72-2.27,4.89-3.27,6.15-5.58
		c11.09-20.38,32.75-19.7,50.71-23.46c48.21-10.09,96.95-17.7,145.54-25.9c10.18-1.72,17.81-1.67,28.15-1.91
		c1.15-0.03,3.86,4.81,3.37,6.78c-4.71,18.99-12.28,39.52-18.3,58.11C1490.35,1779.85,1458.93,1821.62,1426.48,1862.9z
		 M1654.82,1770.22c-13.45,9.95-27.79,18.75-45.55,20.85c-10.11,1.19-19.91,2.99-30.19,1.9c-17.74-1.88-56-4.74-77.25-6.22
		c6.68-12.19,12.77-24.74,17.71-37.63c8.7-22.72,17.26-45.9,21.82-69.66c3.76-19.58-1.43-18.45,22.89-21.77
		c6.49-0.89,16.67-0.48,19.78,3.52c26.09,33.57,51.72,67.5,77.21,101.54C1658.8,1765.74,1655.93,1769.4,1654.82,1770.22z
		 M1922.31,1707.74c-25.33,19.16-50.37,39.02-77.38,55.58c-24.17,14.83-50.58,26.12-76.48,37.93c-7.92,3.61-17.42,3.76-26.19,5.5
		c-24.31,7.6-33.99-11.45-45.76-25.49c-24.44-29.15-48.43-58.67-72.33-88.27c-8.54-10.58-16.41-21.73-24.14-32.92
		c-0.61-0.88,2.06-5.9,3.56-6.08c37.08-4.63,74.2-9.01,111.35-13.09c9.29-1.02,18.71-1.3,28.05-1c2.46,0.08,5.91,3.08,7.04,5.58
		c6.48,14.39,15.39,17.88,30.99,14.32c18.78-4.28,38-6.61,56.94-10.25c14.26-2.74,28.26-7.02,42.6-9.07
		c7.95-1.14,16.44,0.38,24.55,1.62c21.69,3.3,28.1,18.71,30.88,38.11C1937.87,1693.35,1930.87,1701.27,1922.31,1707.74z
		 M2114.42,1562.59c-5.57,13.37-9.86,27.8-18.07,39.42c-11.58,16.4-24.6,32.52-39.83,45.42c-20.96,17.76-47.52,34.4-77.28,34.43
		c-22.14,2.23-22.57,2.36-29.01-18.27c-4.58-14.68-14.3-25.25-25.34-34.84c-6.73-5.84-2.46-7.99,2.43-10.39
		c13.07-6.41,26.9-11.62,39.1-19.38c13.23-8.42,23.78-21.79,37.72-28.15c11.87-5.41,18.95-14.72,28.29-22.07
		c6.54-5.15,12.22-11.4,18.37-17.07c1.26-1.16,2.9-1.91,4.37-2.86c0.4,1.56,1.52,3.36,1.09,4.64c-3.9,11.59-6.64,23.9-12.58,34.39
		c-5.85,10.33-4.94,20.5,5.71,22.89c2.79,0.63,7.51-0.56,9.15-2.64c13.16-16.66,32.4-22.93,50.89-30.42
		C2110.35,1557.31,2114.78,1561.73,2114.42,1562.59z M2149.92,1550.73c1.9,3.9,8.69,8.28,12.72,7.79
		c21.73-2.63,43.28-6.78,64.93-10.18c1.98-0.31,4.21,1.01,6.32,1.57c-0.99,2.09-1.82,4.28-3,6.25
		c-11.35,18.87-31.34,21.71-44.45,25.76c-21.6,0.84-37.54,1.67-53.48,1.73c-1.49,0.01-4.87-5.73-4.14-7.4
		c2.21-5.07,6.75-9.13,8.95-14.2c2.06-4.75,4.79-11.94,2.72-15.13c-3.25-4.99-9.89-9.01-15.85-10.56c-4.22-1.1-9.87,2.14-14.55,4.19
		c-11.35,4.99-22.49,10.47-33.77,15.6c-1.28,0.58-2.98,0.24-4.49,0.33c2.13-7.52,1.94-19.12,6.78-21.87
		c23.38-13.31,49.85-14.85,76.34-16.24c14.67-0.77,29.09-5.44,43.73-7.66c9.26-1.4,18.78-2.45,28.03-1.73
		c3.42,0.27,8.41,5.76,8.98,9.44c0.48,3.11-4,9.72-6.99,10.18c-23.51,3.56-47.17,6.16-70.82,8.71
		C2148.69,1538.31,2146.9,1544.53,2149.92,1550.73z"/>
	<path class="st0" d="M1718.4,941.94c7.74-5.66,12.79-21.65,8.77-30.91c-3.27-7.54-7.98-14.46-11.97-21.7
		c-2.4-4.35-6.66-5.12-10.29-3.55c-2.87,1.25-5.8,4.53-6.74,7.53c-1.67,5.3-1.86,11.07-2.52,15.68
		c0.07,12.08,5.88,21.24,10.27,30.76C1707.69,943.59,1715.22,944.27,1718.4,941.94z"/>
	<path class="st0" d="M1628.27,929.03c0.43,3.27,1.04,6.59,2.12,9.69c4.17,11.96,6.59,14.9,20.4,10.9c4.03-1.17,5.45-3.55,4.82-7.32
		c-1.64-9.75-3.72-19.44-5.09-29.23c-0.86-6.17-4.53-10.19-8.83-13.86c-5.74-4.9-13.74-2.17-15.36,5.19
		c-0.41,1.88-0.06,3.93-0.06,6.12C1626.9,916.56,1627.44,922.81,1628.27,929.03z"/>
</g>
</svg>
