<?xml version="1.0" encoding="UTF-8"?>
<svg width="158px" height="63px" viewBox="0 0 158 63" version="1.1" xmlns="http://www.w3.org/2000/svg" xmlns:xlink="http://www.w3.org/1999/xlink">
    <!-- Generator: Sketch 55.2 (78181) - https://sketchapp.com -->
    <title>Goscho_Logo_web</title>
    <desc>Created with Sketch.</desc>
    <g id="Welcome" stroke="none" stroke-width="1" fill="none" fill-rule="evenodd">
        <g id="D-–-Programm" transform="translate(-244.000000, -19.000000)" fill-rule="nonzero">
            <g id="Header">
                <g id="Goscho_Logo_web" transform="translate(244.000000, 19.000000)">
                    <g id="Group" fill="#808285">
                        <path d="M15.3287719,12.2123077 L20.6416374,12.2123077 L20.6416374,20.9169231 C19.514386,21.7292308 18.1191813,22.4030769 16.4560234,22.9292308 C14.7928655,23.4553846 13.2221053,23.7230769 11.7345029,23.7230769 C9.61859649,23.7230769 7.70596491,23.2430769 6.00584795,22.2738462 C4.30573099,21.3046154 2.96596491,19.9753846 1.99578947,18.2861538 C1.02561404,16.5969231 0.545146199,14.6953846 0.545146199,12.5723077 C0.545146199,10.4769231 1.04409357,8.57538462 2.0419883,6.88615385 C3.03988304,5.19692308 4.42584795,3.86769231 6.19988304,2.91692308 C7.97391813,1.95692308 9.95122807,1.47692308 12.1502924,1.47692308 C13.7302924,1.47692308 15.3195322,1.77230769 16.8995322,2.36307692 C18.4795322,2.95384615 19.828538,3.75692308 20.9373099,4.77230769 L17.4354386,9.11076923 C16.7239766,8.4 15.8831579,7.82769231 14.931462,7.40307692 C13.9705263,6.97846154 13.0373099,6.76615385 12.1225731,6.76615385 C11.1339181,6.76615385 10.2376608,7.02461538 9.43380117,7.53230769 C8.62994152,8.04 8.00163743,8.74153846 7.54888889,9.62769231 C7.09614035,10.5138462 6.8651462,11.4923077 6.8651462,12.5723077 C6.8651462,13.6707692 7.09614035,14.6676923 7.55812865,15.5630769 C8.02011696,16.4584615 8.65766082,17.16 9.47076023,17.6676923 C10.2838596,18.1753846 11.180117,18.4338462 12.1687719,18.4338462 C13.0557895,18.4338462 14.1091228,18.1384615 15.3102924,17.5476923 L15.3102924,12.2123077 L15.3287719,12.2123077 Z" id="Path"></path>
                        <path d="M36.6726316,7.52307692 C38.0216374,8.22461538 39.065731,9.22153846 39.8049123,10.5046154 C40.5440936,11.7876923 40.9136842,13.2830769 40.9136842,15 C40.9136842,16.6892308 40.5440936,18.1846154 39.8049123,19.4769231 C39.065731,20.7692308 38.0216374,21.7661538 36.6726316,22.4676923 C35.3236257,23.1692308 33.7528655,23.52 31.9511111,23.52 C30.1493567,23.52 28.5693567,23.1692308 27.2203509,22.4676923 C25.8621053,21.7661538 24.8180117,20.7692308 24.0788304,19.4769231 C23.3396491,18.1846154 22.9700585,16.6892308 22.9700585,15 C22.9700585,13.2923077 23.3396491,11.7876923 24.0788304,10.5046154 C24.8180117,9.22153846 25.871345,8.22461538 27.2203509,7.52307692 C28.5785965,6.82153846 30.1493567,6.47076923 31.9511111,6.47076923 C33.7528655,6.47076923 35.3236257,6.82153846 36.6726316,7.52307692 Z M29.8167251,12.3784615 C29.2808187,13.0615385 29.0128655,13.9476923 29.0128655,15.0553846 C29.0128655,16.1723077 29.2808187,17.0676923 29.8167251,17.7415385 C30.3526316,18.4153846 31.0640936,18.7476923 31.9511111,18.7476923 C32.8196491,18.7476923 33.5218713,18.4153846 34.0577778,17.7415385 C34.5936842,17.0676923 34.8616374,16.1723077 34.8616374,15.0553846 C34.8616374,13.9569231 34.5936842,13.0615385 34.0577778,12.3784615 C33.5218713,11.6953846 32.8196491,11.3538462 31.9511111,11.3538462 C31.0640936,11.3630769 30.3526316,11.6953846 29.8167251,12.3784615 Z" id="Shape"></path>
                        <path d="M49.5805848,10.56 C49.2017544,10.56 48.9060819,10.6246154 48.6935673,10.7630769 C48.4718129,10.8923077 48.3701754,11.0953846 48.3701754,11.3630769 C48.3701754,11.6676923 48.5734503,11.9169231 48.98,12.1107692 C49.3865497,12.3046154 50.0333333,12.5261538 50.9203509,12.7661538 C52.1030409,13.1169231 53.0916959,13.4584615 53.877076,13.8092308 C54.6624561,14.16 55.3369591,14.6769231 55.9283041,15.3784615 C56.5104094,16.08 56.8060819,16.9846154 56.8060819,18.0830769 C56.8060819,19.7723077 56.1592982,21.1107692 54.865731,22.0984615 C53.5721637,23.0861538 51.8535673,23.5846154 49.7191813,23.5846154 C48.2962573,23.5846154 46.9380117,23.3815385 45.6352047,22.9846154 C44.3416374,22.5876923 43.1681871,22.0061538 42.1148538,21.2307692 L43.9535673,17.3538462 C44.9607018,18.0276923 45.9678363,18.5353846 46.965731,18.8769231 C47.9636257,19.2276923 48.9060819,19.3938462 49.8023392,19.3938462 C50.2181287,19.3938462 50.5415205,19.3292308 50.7817544,19.1907692 C51.0219883,19.0615385 51.1421053,18.8676923 51.1421053,18.6276923 C51.1421053,18.3230769 50.9480702,18.0738462 50.56,17.88 C50.1719298,17.6861538 49.534386,17.4646154 48.6473684,17.2246154 C47.5016374,16.9015385 46.5407018,16.56 45.7645614,16.2184615 C44.9884211,15.8769231 44.3231579,15.3507692 43.7502924,14.6584615 C43.1774269,13.9661538 42.8909942,13.0707692 42.8909942,11.9723077 C42.8909942,10.2646154 43.528538,8.90769231 44.794386,7.91076923 C46.0602339,6.91384615 47.7233918,6.41538462 49.7838596,6.41538462 C52.260117,6.41538462 54.6254971,7.08923077 56.88,8.42769231 L54.8934503,12.3046154 C52.6666667,11.1415385 50.9111111,10.56 49.5805848,10.56 Z" id="Path"></path>
                        <path d="M68.6237427,11.9076923 C68.1802339,11.6215385 67.6812865,11.4830769 67.1269006,11.4830769 C66.3322807,11.4830769 65.6947368,11.8061538 65.1957895,12.4615385 C64.6968421,13.1169231 64.4566082,13.9661538 64.4566082,15.0276923 C64.4566082,16.1076923 64.6968421,16.9753846 65.1865497,17.64 C65.6670175,18.3046154 66.3230409,18.6369231 67.1269006,18.6369231 C68.3373099,18.6369231 69.1873684,18.0276923 69.677076,16.8 L74.3339181,19.2092308 C73.7240936,20.5753846 72.7539181,21.6369231 71.4418713,22.3846154 C70.1298246,23.1415385 68.5775439,23.5107692 66.794269,23.5107692 C65.1126316,23.5107692 63.634269,23.16 62.3684211,22.4584615 C61.1025731,21.7569231 60.1231579,20.7692308 59.4301754,19.4953846 C58.737193,18.2215385 58.3953216,16.7446154 58.3953216,15.0461538 C58.3953216,13.3384615 58.7464327,11.8338462 59.448655,10.5415385 C60.1508772,9.24923077 61.1395322,8.24307692 62.4146199,7.53230769 C63.6897076,6.82153846 65.1680702,6.46153846 66.8497076,6.46153846 C68.531345,6.46153846 70.0189474,6.84 71.3125146,7.58769231 C72.6060819,8.34461538 73.6039766,9.41538462 74.2969591,10.8 L69.6955556,13.1261538 C69.4276023,12.6 69.0672515,12.1938462 68.6237427,11.9076923 Z" id="Path"></path>
                        <path d="M91.9633918,8.16923077 C93.0352047,9.32307692 93.5618713,10.8553846 93.5618713,12.7661538 L93.5618713,23.3076923 L87.5652632,23.3076923 L87.5652632,14.5384615 C87.5652632,13.7076923 87.3619883,13.0430769 86.9461988,12.5630769 C86.5304094,12.0830769 85.9667836,11.8430769 85.2553216,11.8430769 C84.4422222,11.8615385 83.8046784,12.1661538 83.3242105,12.7569231 C82.8529825,13.3476923 82.6127485,14.1230769 82.6127485,15.0830769 L82.6127485,23.2984615 L76.6161404,23.2984615 L76.6161404,0.627692308 L82.6127485,0.627692308 L82.6127485,9.24 C83.185614,8.32615385 83.9063158,7.62461538 84.765614,7.14461538 C85.6249123,6.66461538 86.622807,6.42461538 87.7500585,6.42461538 C89.4871345,6.44307692 90.8915789,7.01538462 91.9633918,8.16923077 Z" id="Path"></path>
                        <path d="M109.592865,7.52307692 C110.941871,8.22461538 111.985965,9.22153846 112.725146,10.5046154 C113.464327,11.7876923 113.833918,13.2830769 113.833918,15 C113.833918,16.6892308 113.464327,18.1846154 112.725146,19.4769231 C111.985965,20.7692308 110.941871,21.7661538 109.592865,22.4676923 C108.24386,23.1692308 106.673099,23.52 104.871345,23.52 C103.069591,23.52 101.489591,23.1692308 100.140585,22.4676923 C98.7823392,21.7661538 97.7382456,20.7692308 96.9990643,19.4769231 C96.259883,18.1846154 95.8902924,16.6892308 95.8902924,15 C95.8902924,13.2923077 96.259883,11.7876923 96.9990643,10.5046154 C97.7382456,9.22153846 98.7915789,8.22461538 100.140585,7.52307692 C101.49883,6.82153846 103.069591,6.47076923 104.871345,6.47076923 C106.673099,6.47076923 108.24386,6.82153846 109.592865,7.52307692 Z M102.736959,12.3784615 C102.201053,13.0615385 101.933099,13.9476923 101.933099,15.0553846 C101.933099,16.1723077 102.201053,17.0676923 102.736959,17.7415385 C103.272865,18.4153846 103.984327,18.7476923 104.871345,18.7476923 C105.739883,18.7476923 106.442105,18.4153846 106.978012,17.7415385 C107.513918,17.0676923 107.781871,16.1723077 107.781871,15.0553846 C107.781871,13.9569231 107.513918,13.0615385 106.978012,12.3784615 C106.442105,11.6953846 105.739883,11.3538462 104.871345,11.3538462 C103.984327,11.3630769 103.272865,11.6953846 102.736959,12.3784615 Z" id="Shape"></path>
                        <path d="M120.200117,18.6 C120.726784,19.1261538 120.985497,19.8092308 120.985497,20.6492308 C120.985497,21.5076923 120.726784,22.2 120.200117,22.7446154 C119.67345,23.28 118.998947,23.5569231 118.167368,23.5569231 C117.354269,23.5569231 116.689006,23.2892308 116.162339,22.7446154 C115.635673,22.2092308 115.376959,21.5076923 115.376959,20.6492308 C115.376959,19.8184615 115.635673,19.1353846 116.162339,18.6 C116.689006,18.0738462 117.354269,17.8061538 118.167368,17.8061538 C118.998947,17.8061538 119.67345,18.0738462 120.200117,18.6 Z" id="Path"></path>
                        <path d="M132.756959,11.9076923 C132.31345,11.6215385 131.814503,11.4830769 131.260117,11.4830769 C130.465497,11.4830769 129.827953,11.8061538 129.329006,12.4615385 C128.830058,13.1169231 128.589825,13.9661538 128.589825,15.0276923 C128.589825,16.1076923 128.830058,16.9753846 129.319766,17.64 C129.800234,18.3046154 130.456257,18.6369231 131.260117,18.6369231 C132.470526,18.6369231 133.320585,18.0276923 133.810292,16.8 L138.467135,19.2092308 C137.85731,20.5753846 136.887135,21.6369231 135.575088,22.3846154 C134.263041,23.1415385 132.71076,23.5107692 130.927485,23.5107692 C129.245848,23.5107692 127.767485,23.16 126.501637,22.4584615 C125.235789,21.7569231 124.256374,20.7692308 123.563392,19.4953846 C122.870409,18.2215385 122.528538,16.7446154 122.528538,15.0461538 C122.528538,13.3384615 122.879649,11.8338462 123.581871,10.5415385 C124.284094,9.24923077 125.272749,8.24307692 126.547836,7.53230769 C127.822924,6.82153846 129.301287,6.46153846 130.982924,6.46153846 C132.664561,6.46153846 134.152164,6.84 135.445731,7.58769231 C136.739298,8.34461538 137.737193,9.41538462 138.430175,10.8 L133.828772,13.1261538 C133.560819,12.6 133.200468,12.1938462 132.756959,11.9076923 Z" id="Path"></path>
                        <path d="M156.096608,8.16923077 C157.168421,9.32307692 157.695088,10.8553846 157.695088,12.7661538 L157.695088,23.3076923 L151.69848,23.3076923 L151.69848,14.5384615 C151.69848,13.7076923 151.495205,13.0430769 151.079415,12.5630769 C150.663626,12.0830769 150.1,11.8430769 149.388538,11.8430769 C148.575439,11.8615385 147.937895,12.1661538 147.457427,12.7569231 C146.986199,13.3476923 146.745965,14.1230769 146.745965,15.0830769 L146.745965,23.2984615 L140.749357,23.2984615 L140.749357,0.627692308 L146.745965,0.627692308 L146.745965,9.24 C147.31883,8.32615385 148.039532,7.62461538 148.89883,7.14461538 C149.758129,6.66461538 150.756023,6.42461538 151.883275,6.42461538 C153.629591,6.44307692 155.034035,7.01538462 156.096608,8.16923077 Z" id="Path"></path>
                    </g>
                    <g id="Group" transform="translate(2.000000, 27.000000)" fill="#FFFFFF">
                        <polygon id="Path" points="7.22267717 15.5909091 5.2511811 11.7636364 4.43125984 12.6363636 4.43125984 15.6 0.405354331 15.6 0.405354331 0.554545455 4.43125984 0.554545455 4.43125984 7.87272727 7.42535433 4.57272727 11.9671654 4.57272727 7.99653543 8.82727273 11.9855906 15.6 7.22267717 15.6"></polygon>
                        <path d="M24.3488976,4.56363636 L24.3488976,15.5909091 L20.3229921,15.5909091 L20.3229921,13.9454545 C19.9544882,14.5363636 19.4846457,14.9909091 18.9134646,15.3 C18.3514961,15.6090909 17.7066142,15.7636364 16.9880315,15.7636364 C16.2325984,15.7636364 15.5600787,15.5909091 14.9888976,15.2454545 C14.4085039,14.9 13.9662992,14.4090909 13.6438583,13.7727273 C13.3214173,13.1363636 13.1648031,12.3909091 13.1648031,11.5454545 L13.1648031,4.55454545 L17.1907087,4.55454545 L17.1907087,10.3909091 C17.1907087,10.9272727 17.319685,11.3636364 17.5868504,11.6818182 C17.8540157,12 18.2040945,12.1545455 18.6462992,12.1545455 C19.1622047,12.1454545 19.5767717,11.9363636 19.8715748,11.5454545 C20.166378,11.1545455 20.3229921,10.6363636 20.3229921,10.0090909 L20.3229921,4.55454545 L24.3488976,4.55454545 L24.3488976,4.56363636 Z" id="Path"></path>
                        <polygon id="Path" points="26.9007874 0.554545455 30.9266929 0.554545455 30.9266929 15.6 26.9007874 15.6"></polygon>
                        <path d="M41.0144882,15.0636364 C40.6275591,15.2818182 40.1577165,15.4545455 39.6049606,15.5818182 C39.0522047,15.7090909 38.4994488,15.7727273 37.9374803,15.7727273 C36.7766929,15.7727273 35.8554331,15.4454545 35.1644882,14.8 C34.4735433,14.1545455 34.1234646,13.2636364 34.1234646,12.1454545 L34.1234646,7.74545455 L32.6310236,7.74545455 L32.6310236,5.12727273 L34.1234646,5.12727273 L34.1234646,2.06363636 L38.1309449,2.06363636 L38.1309449,5.12727273 L40.8025984,5.12727273 L40.8025984,7.74545455 L38.1309449,7.74545455 L38.1309449,11.5181818 C38.1309449,11.8727273 38.2138583,12.1363636 38.3704724,12.3090909 C38.5270866,12.4818182 38.7574016,12.5727273 39.0522047,12.5727273 C39.3009449,12.5727273 39.7155118,12.4636364 40.2866929,12.2454545 L41.0144882,15.0636364 Z" id="Path"></path>
                        <path d="M53.7370866,4.56363636 L53.7370866,15.5909091 L49.7111811,15.5909091 L49.7111811,13.9454545 C49.3426772,14.5363636 48.8728346,14.9909091 48.3016535,15.3 C47.739685,15.6090909 47.0948031,15.7636364 46.3762205,15.7636364 C45.6207874,15.7636364 44.9482677,15.5909091 44.3770866,15.2454545 C43.7966929,14.9 43.3544882,14.4090909 43.0320472,13.7727273 C42.7096063,13.1363636 42.5529921,12.3909091 42.5529921,11.5454545 L42.5529921,4.55454545 L46.5788976,4.55454545 L46.5788976,10.3909091 C46.5788976,10.9272727 46.707874,11.3636364 46.9750394,11.6818182 C47.2422047,12 47.5922835,12.1545455 48.0344882,12.1545455 C48.5503937,12.1454545 48.9649606,11.9363636 49.2597638,11.5454545 C49.5545669,11.1545455 49.7111811,10.6363636 49.7111811,10.0090909 L49.7111811,4.55454545 L53.7370866,4.55454545 L53.7370866,4.56363636 Z" id="Path"></path>
                        <path d="M61.7151969,4.9 C62.2955906,4.57272727 62.949685,4.4 63.6774803,4.4 L63.6774803,8.09090909 C63.5208661,8.06363636 63.2813386,8.05454545 62.9773228,8.05454545 C62.1389764,8.05454545 61.4756693,8.25454545 60.9966142,8.66363636 C60.5083465,9.07272727 60.2688189,9.62727273 60.2688189,10.3272727 L60.2688189,15.6 L56.2429134,15.6 L56.2429134,4.57272727 L60.2688189,4.57272727 L60.2688189,6.31818182 C60.655748,5.7 61.1440157,5.22727273 61.7151969,4.9 Z" id="Path"></path>
                        <path d="M74.787874,5.13636364 C75.5433071,5.60909091 76.1329134,6.28181818 76.5474803,7.14545455 C76.9620472,8.00909091 77.173937,9.00909091 77.173937,10.1454545 C77.173937,11.2636364 76.9712598,12.2545455 76.5659055,13.0909091 C76.1605512,13.9363636 75.5893701,14.5909091 74.8431496,15.0454545 C74.0969291,15.5090909 73.2309449,15.7363636 72.2544094,15.7363636 C71.6187402,15.7363636 71.0383465,15.6181818 70.5224409,15.3727273 C70.0065354,15.1272727 69.5551181,14.7818182 69.1866142,14.3181818 L69.1866142,19.5272727 L65.1607087,19.5272727 L65.1607087,4.56363636 L69.1866142,4.56363636 L69.1866142,5.83636364 C69.5459055,5.37272727 69.9788976,5.02727273 70.4855906,4.78181818 C70.9922835,4.53636364 71.5450394,4.41818182 72.1622835,4.41818182 C73.1480315,4.42727273 74.0324409,4.66363636 74.787874,5.13636364 Z M72.5768504,11.8090909 C72.9361417,11.3545455 73.1111811,10.7636364 73.1111811,10.0363636 C73.1111811,9.30909091 72.9361417,8.71818182 72.5768504,8.26363636 C72.2175591,7.80909091 71.7385039,7.58181818 71.139685,7.58181818 C70.5592913,7.58181818 70.0802362,7.80909091 69.7209449,8.26363636 C69.3616535,8.71818182 69.1866142,9.30909091 69.1866142,10.0363636 C69.1866142,10.7636364 69.3616535,11.3545455 69.7209449,11.8090909 C70.0802362,12.2636364 70.5500787,12.4909091 71.139685,12.4909091 C71.7385039,12.4909091 72.2175591,12.2636364 72.5768504,11.8090909 Z" id="Shape"></path>
                        <polygon id="Path" points="79.0901575 0.554545455 83.116063 0.554545455 83.116063 15.6 79.0901575 15.6"></polygon>
                        <path d="M94.4751969,5.46363636 C95.3319685,6.17272727 95.7649606,7.16363636 95.7649606,8.43636364 L95.7649606,15.5909091 L91.8219685,15.5909091 L91.8219685,14.3727273 C91.490315,14.8181818 91.0573228,15.1636364 90.5137795,15.4090909 C89.9794488,15.6545455 89.3529921,15.7727273 88.6528346,15.7727273 C87.5104724,15.7727273 86.6168504,15.4545455 85.9627559,14.8272727 C85.3086614,14.2 84.9862205,13.3545455 84.9862205,12.3 C84.9862205,11.2363636 85.3455118,10.4090909 86.0548819,9.83636364 C86.764252,9.26363636 87.8052756,8.96363636 89.1779528,8.95454545 L91.8311811,8.95454545 L91.8311811,8.91818182 C91.8311811,8.45454545 91.6745669,8.1 91.352126,7.84545455 C91.029685,7.59090909 90.5690551,7.46363636 89.9610236,7.46363636 C89.5188189,7.46363636 89.012126,7.52727273 88.4317323,7.66363636 C87.8513386,7.8 87.2709449,7.99090909 86.6905512,8.25454545 L85.6955906,5.53636364 C87.5288976,4.78181818 89.2700787,4.4 90.9191339,4.4 C92.4207874,4.4 93.6184252,4.75454545 94.4751969,5.46363636 Z M91.0941732,12.8 C91.4258268,12.6 91.6653543,12.3181818 91.8127559,11.9727273 L91.8127559,10.9818182 L89.9794488,10.9818182 C89.1687402,10.9818182 88.7633858,11.3272727 88.7633858,12.0181818 C88.7633858,12.3727273 88.873937,12.6363636 89.0858268,12.8272727 C89.2977165,13.0181818 89.6017323,13.1090909 89.9794488,13.1090909 C90.3848031,13.1 90.7625197,13 91.0941732,12.8 Z" id="Shape"></path>
                        <path d="M105.447402,15.0636364 C105.060472,15.2818182 104.59063,15.4545455 104.037874,15.5818182 C103.485118,15.7090909 102.932362,15.7727273 102.370394,15.7727273 C101.209606,15.7727273 100.288346,15.4454545 99.5974016,14.8 C98.9064567,14.1545455 98.556378,13.2636364 98.556378,12.1454545 L98.556378,7.74545455 L97.063937,7.74545455 L97.063937,5.12727273 L98.556378,5.12727273 L98.556378,2.06363636 L102.563858,2.06363636 L102.563858,5.12727273 L105.235512,5.12727273 L105.235512,7.74545455 L102.563858,7.74545455 L102.563858,11.5181818 C102.563858,11.8727273 102.646772,12.1363636 102.803386,12.3090909 C102.96,12.4818182 103.190315,12.5727273 103.485118,12.5727273 C103.733858,12.5727273 104.148425,12.4636364 104.719606,12.2454545 L105.447402,15.0636364 Z" id="Path"></path>
                        <polygon id="Path" points="106.884567 4.56363636 116.613071 4.56363636 116.613071 7 111.748819 12.5363636 116.815748 12.5363636 116.815748 15.6 106.68189 15.6 106.68189 13.1909091 111.546142 7.65454545 106.884567 7.65454545"></polygon>
                    </g>
                    <g id="Group" transform="translate(2.000000, 46.000000)" fill="#FFFFFF">
                        <path d="M10.045098,5.23222222 C10.8007843,5.72333333 11.3905882,6.42222222 11.8052941,7.31944444 C12.22,8.21666667 12.4319608,9.25555556 12.4319608,10.4361111 C12.4319608,11.5977778 12.2292157,12.6272222 11.8237255,13.4961111 C11.4182353,14.3744444 10.8468627,15.0544444 10.1003922,15.5266667 C9.35392157,16.0083333 8.48764706,16.2444444 7.51078431,16.2444444 C6.87490196,16.2444444 6.29431373,16.1216667 5.77823529,15.8666667 C5.26215686,15.6116667 4.81058824,15.2527778 4.44196078,14.7711111 L4.44196078,16.0933333 L0.414705882,16.0933333 L0.414705882,0.472222222 L4.44196078,0.472222222 L4.44196078,5.96888889 C4.80137255,5.48722222 5.2345098,5.12833333 5.74137255,4.87333333 C6.24823529,4.61833333 6.80117647,4.49555556 7.41862745,4.49555556 C8.40470588,4.49555556 9.28019608,4.74111111 10.045098,5.23222222 Z M7.82411765,12.1738889 C8.18352941,11.7016667 8.35862745,11.0877778 8.35862745,10.3322222 C8.35862745,9.57666667 8.18352941,8.96277778 7.82411765,8.49055556 C7.46470588,8.01833333 6.9854902,7.78222222 6.38647059,7.78222222 C5.80588235,7.78222222 5.32666667,8.01833333 4.9672549,8.49055556 C4.60784314,8.96277778 4.4327451,9.57666667 4.4327451,10.3322222 C4.4327451,11.0877778 4.60784314,11.7016667 4.9672549,12.1738889 C5.32666667,12.6461111 5.79666667,12.8822222 6.38647059,12.8822222 C6.9854902,12.8822222 7.46470588,12.6461111 7.82411765,12.1738889 Z" id="Shape"></path>
                        <path d="M23.4815686,6.16722222 C24.4768627,7.28166667 24.9745098,8.81166667 24.9745098,10.7477778 C24.9745098,11.0405556 24.9652941,11.2577778 24.9560784,11.3994444 L17.6572549,11.3994444 C17.8139216,11.9472222 18.0811765,12.3722222 18.4405882,12.665 C18.8092157,12.9577778 19.2515686,13.1088889 19.7676471,13.1088889 C20.6062745,13.1088889 21.3988235,12.7405556 22.1637255,12.0133333 L24.2556863,14.1855556 C23.6843137,14.8561111 22.9931373,15.3755556 22.1729412,15.725 C21.3527451,16.0744444 20.4403922,16.2538889 19.4266667,16.2538889 C18.2286275,16.2538889 17.1964706,16.0083333 16.3117647,15.5266667 C15.4362745,15.045 14.7635294,14.365 14.2843137,13.4866667 C13.8143137,12.6083333 13.5747059,11.5883333 13.5747059,10.4266667 C13.5747059,9.24611111 13.8143137,8.21666667 14.2935294,7.31944444 C14.7727451,6.43166667 15.4454902,5.73277778 16.3117647,5.24166667 C17.1780392,4.75055556 18.1733333,4.505 19.3068627,4.505 C21.0947059,4.49555556 22.4862745,5.05277778 23.4815686,6.16722222 Z M20.5509804,7.92388889 C20.2468627,7.55555556 19.8505882,7.37611111 19.3529412,7.37611111 C18.8829412,7.37611111 18.505098,7.55555556 18.1917647,7.905 C17.8876471,8.25444444 17.6756863,8.72666667 17.5743137,9.31222222 L20.9841176,9.31222222 C21.002549,8.755 20.855098,8.29222222 20.5509804,7.92388889 Z" id="Shape"></path>
                        <path d="M32.2272549,4.98666667 C32.8078431,4.64666667 33.4621569,4.46722222 34.1901961,4.46722222 L34.1901961,8.30166667 C34.0335294,8.27333333 33.7939216,8.26388889 33.4898039,8.26388889 C32.6511765,8.26388889 31.9876471,8.47166667 31.5084314,8.89666667 C31.02,9.32166667 30.7803922,9.89777778 30.7803922,10.625 L30.7803922,16.1027778 L26.7531373,16.1027778 L26.7531373,4.64666667 L30.7803922,4.64666667 L30.7803922,6.46 C31.167451,5.81777778 31.6466667,5.33611111 32.2272549,4.98666667 Z" id="Path"></path>
                        <path d="M45.1292157,5.015 C45.7190196,5.37388889 46.1798039,5.88388889 46.5023529,6.545 C46.824902,7.20611111 46.9907843,7.97111111 46.9907843,8.84 L46.9907843,16.1027778 L42.9635294,16.1027778 L42.9635294,10.0583333 C42.9635294,9.50111111 42.8160784,9.04777778 42.5303922,8.70777778 C42.2447059,8.36777778 41.8668627,8.19777778 41.4060784,8.19777778 C40.8623529,8.20722222 40.4292157,8.42444444 40.1066667,8.83055556 C39.7841176,9.23666667 39.627451,9.775 39.627451,10.4266667 L39.627451,16.0933333 L35.6001961,16.0933333 L35.6001961,4.63722222 L39.627451,4.63722222 L39.627451,6.40333333 C40.0145098,5.77055556 40.4937255,5.28888889 41.0743137,4.95833333 C41.654902,4.62777778 42.3184314,4.46722222 43.0741176,4.46722222 C43.857451,4.47666667 44.5394118,4.65611111 45.1292157,5.015 Z" id="Path"></path>
                    </g>
                </g>
            </g>
        </g>
    </g>
</svg>